<svg width="125" height="146" viewBox="0 0 125 146" fill="none" xmlns="http://www.w3.org/2000/svg">
<g clip-path="url(#clip0_110_109)">
<path d="M95.61 6.44V8.07L97.36 8.13V6.45C97.0807 6.51027 96.7957 6.54045 96.51 6.54C96.2074 6.5375 95.9058 6.50399 95.61 6.44Z" fill="white"/>
<path d="M86.91 6.44V7.82H88.66V6.45C88.3807 6.51027 88.0957 6.54045 87.81 6.54C87.5074 6.5375 87.2058 6.50399 86.91 6.44Z" fill="white"/>
<path d="M78.21 6.44V7.64H79.96V6.45C79.6807 6.51027 79.3957 6.54045 79.11 6.54C78.8074 6.5375 78.5058 6.50399 78.21 6.44Z" fill="white"/>
<path d="M87.81 6.23C88.6732 6.26798 89.5161 5.96176 90.1536 5.37862C90.7911 4.79548 91.1711 3.98311 91.21 3.12C91.1442 2.26331 90.7575 1.46301 90.1271 0.879163C89.4968 0.295317 88.6692 -0.0290403 87.81 -0.0290403C86.9508 -0.0290403 86.1232 0.295317 85.4929 0.879163C84.8625 1.46301 84.4758 2.26331 84.41 3.12C84.4515 3.98219 84.8322 4.79299 85.4692 5.37559C86.1061 5.95818 86.9475 6.26532 87.81 6.23Z" fill="white"/>
<path d="M96.51 6.23C97.3731 6.26798 98.2161 5.96176 98.8536 5.37862C99.4911 4.79548 99.8711 3.98311 99.91 3.12C99.8442 2.26331 99.4575 1.46301 98.8271 0.879163C98.1967 0.295317 97.3692 -0.0290403 96.51 -0.0290403C95.6508 -0.0290403 94.8232 0.295317 94.1928 0.879163C93.5625 1.46301 93.1757 2.26331 93.11 3.12C93.1489 3.98311 93.5289 4.79548 94.1664 5.37862C94.8039 5.96176 95.6468 6.26798 96.51 6.23Z" fill="white"/>
<path d="M79.11 6.23C79.9731 6.26798 80.8161 5.96176 81.4536 5.37862C82.0911 4.79548 82.4711 3.98311 82.51 3.12C82.4442 2.26331 82.0575 1.46301 81.4271 0.879163C80.7967 0.295317 79.9692 -0.0290403 79.11 -0.0290403C78.2508 -0.0290403 77.4232 0.295317 76.7929 0.879163C76.1625 1.46301 75.7757 2.26331 75.71 3.12C75.7515 3.98219 76.1322 4.79299 76.7692 5.37559C77.4061 5.95818 78.2475 6.26532 79.11 6.23Z" fill="white"/>
<path d="M112.23 106.59C112.05 112.37 111.65 118.14 111.03 123.9H111.15C111.528 123.883 111.905 123.94 112.261 124.069C112.616 124.198 112.943 124.396 113.222 124.651C113.501 124.907 113.726 125.215 113.885 125.558C114.045 125.901 114.135 126.272 114.15 126.65V133C114.136 133.379 114.047 133.751 113.888 134.095C113.729 134.439 113.504 134.749 113.225 135.005C112.946 135.262 112.619 135.461 112.263 135.59C111.907 135.72 111.529 135.777 111.15 135.76H96.89V141.14C96.89 143.77 99.56 145.91 102.89 145.91H110C113.29 145.91 116 143.77 116 141.14V111C115.923 109.959 115.516 108.97 114.838 108.177C114.16 107.384 113.246 106.828 112.23 106.59Z" fill="white"/>
<path d="M124.46 60.55C124.535 59.9662 124.418 59.3737 124.125 58.8628C123.833 58.3519 123.382 57.9506 122.84 57.72L119.2 56.72V55.79C119.88 55.8199 120.544 55.5786 121.047 55.1193C121.549 54.66 121.849 54.0201 121.88 53.34V42.76C121.849 42.0799 121.549 41.44 121.047 40.9807C120.544 40.5214 119.88 40.2802 119.2 40.31H119.12C118.934 39.6413 118.532 39.0528 117.977 38.6367C117.422 38.2206 116.744 38.0002 116.05 38.01H111.14C111.019 37.6775 110.823 37.3777 110.566 37.1346C110.309 36.8916 109.999 36.7119 109.66 36.61C109.395 36.5256 109.118 36.4817 108.84 36.48H74.56C78.56 36.6 82.46 36.75 86.4 37.05C90.34 37.35 94.29 37.72 98.22 38.31C100.22 38.63 102.13 38.97 104.06 39.48C105.028 39.7205 105.977 40.0313 106.9 40.41C107.363 40.6007 107.806 40.8386 108.22 41.12C108.424 41.2663 108.609 41.4377 108.77 41.63C108.93 41.8285 109.018 42.0752 109.02 42.33C109.004 42.0837 108.897 41.8522 108.72 41.68C108.549 41.5055 108.354 41.3572 108.14 41.24C107.716 41.001 107.266 40.8098 106.8 40.67C105.883 40.3845 104.947 40.1606 104 40C102.07 39.65 100.11 39.42 98.15 39.24C96.19 39.06 94.23 38.9 92.27 38.79C90.31 38.68 88.34 38.58 86.37 38.51C82.43 38.38 78.49 38.27 74.55 38.25C70.61 38.23 66.67 38.25 62.73 38.25C58.79 38.25 54.85 38.36 50.91 38.48C46.97 38.6 43.04 38.76 39.1 38.97C37.1 39.08 35.17 39.22 33.21 39.37C31.25 39.52 29.29 39.7 27.33 39.93C25.37 40.16 23.43 40.43 21.51 40.82C20.5469 41.0074 19.598 41.2613 18.67 41.58C18.2059 41.7304 17.7599 41.9316 17.34 42.18C17.1341 42.3044 16.9458 42.4557 16.78 42.63C16.6076 42.8053 16.5016 43.0351 16.48 43.28C16.4819 43.0282 16.5701 42.7846 16.73 42.59C16.8869 42.3913 17.0683 42.2132 17.27 42.06C17.6767 41.7692 18.1123 41.5212 18.57 41.32C19.4838 40.9169 20.4264 40.5827 21.39 40.32C23.3 39.77 25.25 39.39 27.2 39.03C31.12 38.36 35.05 37.89 39 37.54C42.95 37.19 46.89 36.93 50.85 36.73C53.1433 36.63 55.4367 36.5533 57.73 36.5H15.73C15.4517 36.5017 15.1752 36.5456 14.91 36.63C14.5561 36.715 14.2278 36.8838 13.9528 37.1222C13.6779 37.3607 13.4642 37.6617 13.33 38H8.42C7.72604 37.9902 7.04839 38.2106 6.49295 38.6267C5.93751 39.0428 5.53559 39.6312 5.35 40.3H5.26C4.58157 40.2729 3.91998 40.5153 3.41971 40.9743C2.91944 41.4334 2.62116 42.0718 2.59 42.75V53.34C2.62116 54.0182 2.91944 54.6566 3.41971 55.1157C3.91998 55.5747 4.58157 55.8171 5.26 55.79V56.72L1.63 57.72C1.08652 57.949 0.632951 58.3496 0.338609 58.8606C0.0442671 59.3717 -0.0746621 59.965 -4.11831e-06 60.55C0.0701215 61.4653 0.0701215 62.3847 -4.11831e-06 63.3C-0.0747894 63.8824 0.0430683 64.4734 0.335578 64.9825C0.628088 65.4917 1.07918 65.8912 1.62 66.12L5.25 67.12V68.12C5.26037 68.5245 5.35034 68.923 5.51479 69.2927C5.67923 69.6625 5.91492 69.9962 6.20838 70.2748C6.50184 70.5534 6.84732 70.7714 7.22509 70.9164C7.60285 71.0615 8.00549 71.1306 8.41 71.12H9.7L9.91 69.89H8.42C7.94601 69.8954 7.48902 69.7136 7.14827 69.3841C6.80752 69.0545 6.6105 68.6039 6.6 68.13V67.49L6.87 67.56C7.93 67.89 9.2 66.42 9.36 64.24C9.47999 62.699 9.47999 61.151 9.36 59.61C9.2 57.42 7.93 56 6.87 56.28L6.6 56.36V55.79H6.77C7.45011 55.8199 8.11428 55.5786 8.61673 55.1193C9.11918 54.66 9.41886 54.0201 9.45 53.34V42.76C9.41886 42.0799 9.11918 41.44 8.61673 40.9807C8.11428 40.5214 7.45011 40.2802 6.77 40.31C6.91678 39.9885 7.15354 39.7163 7.45167 39.5264C7.7498 39.3365 8.09654 39.2371 8.45 39.24H13.26V65.16C13.2841 65.6248 13.4563 66.0696 13.7514 66.4295C14.0464 66.7894 14.449 67.0453 14.9 67.16C15.1467 67.233 15.4027 67.27 15.66 67.27H108.87C109.127 67.27 109.383 67.233 109.63 67.16C110.081 67.0453 110.484 66.7894 110.779 66.4295C111.074 66.0696 111.246 65.6248 111.27 65.16V39.24H116.08C116.432 39.2365 116.778 39.3358 117.075 39.5259C117.371 39.716 117.606 39.9885 117.75 40.31C117.408 40.2856 117.064 40.3301 116.739 40.4408C116.414 40.5515 116.114 40.7262 115.858 40.9546C115.602 41.183 115.394 41.4604 115.246 41.7705C115.099 42.0806 115.015 42.417 115 42.76V53.34C115.031 54.0201 115.331 54.66 115.833 55.1193C116.336 55.5786 117 55.8199 117.68 55.79H117.85V56.36L117.58 56.28C116.52 55.95 115.25 57.42 115.09 59.61C114.97 61.151 114.97 62.699 115.09 64.24C115.25 66.42 116.52 67.89 117.58 67.56L117.85 67.49V68.13C117.839 68.6039 117.642 69.0545 117.302 69.3841C116.961 69.7136 116.504 69.8954 116.03 69.89H115.35C115.458 70.293 115.532 70.7045 115.57 71.12H116.03C116.434 71.1306 116.836 71.0614 117.213 70.9162C117.591 70.7711 117.935 70.5529 118.228 70.2742C118.521 69.9954 118.755 69.6617 118.919 69.292C119.082 68.9223 119.171 68.5241 119.18 68.12V67.12L122.82 66.12C123.361 65.8912 123.812 65.4917 124.104 64.9825C124.397 64.4734 124.515 63.8824 124.44 63.3C124.377 62.3842 124.383 61.4648 124.46 60.55Z" fill="white"/>
<path d="M111.52 103.42C112.99 103.42 114.11 102.81 114.21 102.32C116.26 91.2911 116.26 79.9789 114.21 68.95C114.11 68.46 112.99 67.88 111.52 67.85L108.52 67.78C108.225 67.8698 107.918 67.9137 107.61 67.91H17.8C17.4918 67.9137 17.1849 67.8698 16.89 67.78L13.89 67.85C12.42 67.85 11.3 68.46 11.2 68.95C9.14997 79.9789 9.14997 91.2911 11.2 102.32C11.3 102.81 12.42 103.39 13.89 103.42C22.56 103.62 31.29 103.77 40.02 103.86L40.16 104.48C31.38 104.38 22.59 104.24 13.87 104.04H13.78C13.9267 110.68 14.3633 117.3 15.09 123.9H110.36C111.067 117.293 111.49 110.67 111.63 104.03H111.54C102.82 104.23 94.04 104.37 85.25 104.47L85.39 103.85C94.12 103.77 102.85 103.62 111.52 103.42ZM32.79 121.61H18.07C17.6595 121.626 17.2591 121.48 16.9558 121.203C16.6525 120.926 16.4708 120.54 16.45 120.13C16.45 120.01 16.45 119.87 16.45 119.72C16.45 118.94 16.4 117.64 16.85 117.21C16.9419 117.124 17.064 117.077 17.19 117.08C23.61 117.93 34 119.52 34.43 120.15C34.3992 120.558 34.211 120.939 33.9051 121.211C33.5991 121.484 33.1993 121.627 32.79 121.61ZM39.79 114.04C39.55 114.91 37.44 115.44 34.28 115.44H18.61H18.54C17.21 115.44 16.04 113.67 15.98 112.52L15.74 107.52C15.7506 107.277 15.8111 107.039 15.9178 106.82C16.0244 106.602 16.175 106.408 16.36 106.25C17.3621 105.443 18.6393 105.06 19.92 105.18C23.43 105.18 28.54 106.86 35.12 110.18C39.28 112.21 40 113.41 39.78 114L39.79 114.04ZM109 119.72C109 119.87 109 120.01 109 120.13C108.979 120.54 108.798 120.926 108.494 121.203C108.191 121.48 107.791 121.626 107.38 121.61H92.66C92.2473 121.632 91.8425 121.492 91.5321 121.219C91.2218 120.946 91.0308 120.562 91 120.15C91.44 119.52 101.82 117.93 108.24 117.08C108.302 117.078 108.365 117.088 108.423 117.111C108.481 117.133 108.535 117.167 108.58 117.21C109.06 117.64 109 118.94 109 119.72ZM90.38 110.1C96.96 106.8 102.07 105.1 105.58 105.1C106.861 104.98 108.138 105.363 109.14 106.17C109.326 106.328 109.478 106.522 109.586 106.74C109.694 106.958 109.757 107.197 109.77 107.44L109.52 112.44C109.46 113.59 108.29 115.36 106.96 115.36H106.89H91.22C88.07 115.36 85.96 114.83 85.72 113.96C85.5 113.41 86.17 112.21 90.38 110.1ZM81.08 119C80.77 120.42 79.93 121.32 79.5 121.32H46C45.56 121.32 44.72 120.42 44.41 119L35.14 76.54C35.1007 76.3357 35.0807 76.1281 35.08 75.92L13.67 69.74L36.91 74.4H88.76L112 69.74L90.37 76C90.3693 76.1882 90.3492 76.3759 90.31 76.56L81.08 119Z" fill="white"/>
<path d="M113.45 133V126.66C113.427 126.072 113.172 125.517 112.741 125.116C112.31 124.715 111.738 124.501 111.15 124.52H14.3C13.7118 124.501 13.14 124.715 12.7092 125.116C12.2784 125.517 12.0234 126.072 12 126.66V133C12.0209 133.59 12.2747 134.147 12.7058 134.55C13.1369 134.953 13.7102 135.169 14.3 135.15H111.15C111.74 135.169 112.313 134.953 112.744 134.55C113.175 134.147 113.429 133.59 113.45 133Z" fill="white"/>
<path d="M84.79 81.3H40.66C39.66 81.3 38.79 81.76 38.79 82.3C38.79 82.84 39.63 83.3 40.66 83.3H84.79C85.79 83.3 86.67 82.85 86.67 82.3C86.67 81.75 85.83 81.3 84.79 81.3Z" fill="white"/>
<path d="M83.88 85.29H41.57C40.57 85.29 39.76 85.74 39.76 86.29C39.76 86.84 40.57 87.29 41.57 87.29H83.88C84.88 87.29 85.69 86.83 85.69 86.29C85.69 85.75 84.88 85.29 83.88 85.29Z" fill="white"/>
<path d="M83 89.27H42.44C41.44 89.27 40.7 89.73 40.7 90.27C40.7 90.81 41.48 91.27 42.44 91.27H83C84 91.27 84.73 90.82 84.73 90.27C84.73 89.72 84 89.27 83 89.27Z" fill="white"/>
<path d="M82.18 93.26H43.27C42.35 93.26 41.6 93.71 41.6 94.26C41.6 94.81 42.35 95.26 43.27 95.26H82.18C83.1 95.26 83.85 94.8 83.85 94.26C83.85 93.72 83.1 93.26 82.18 93.26Z" fill="white"/>
<path d="M81.37 97.24H44.08C43.19 97.24 42.47 97.7 42.47 98.24C42.47 98.78 43.19 99.24 44.08 99.24H81.37C82.26 99.24 82.98 98.79 82.98 98.24C82.98 97.69 82.26 97.24 81.37 97.24Z" fill="white"/>
<path d="M80.6 101.23H44.85C44 101.23 43.31 101.69 43.31 102.23C43.31 102.77 44 103.23 44.85 103.23H80.6C81.45 103.23 82.14 102.77 82.14 102.23C82.14 101.69 81.45 101.23 80.6 101.23Z" fill="white"/>
<path d="M79.86 105.21H45.59C44.77 105.21 44.11 105.67 44.11 106.21C44.11 106.75 44.77 107.21 45.59 107.21H79.86C80.68 107.21 81.34 106.76 81.34 106.21C81.34 105.66 80.68 105.21 79.86 105.21Z" fill="white"/>
<path d="M79.14 109.2H46.31C45.52 109.2 44.88 109.66 44.88 110.2C44.88 110.74 45.52 111.2 46.31 111.2H79.14C79.93 111.2 80.57 110.74 80.57 110.2C80.57 109.66 79.93 109.2 79.14 109.2Z" fill="white"/>
<path d="M78.45 113.18H47C46.24 113.18 45.62 113.64 45.62 114.18C45.62 114.72 46.24 115.18 47 115.18H78.45C79.21 115.18 79.83 114.73 79.83 114.18C79.83 113.63 79.21 113.18 78.45 113.18Z" fill="white"/>
<path d="M77.79 117.17H47.66C47.5026 117.12 47.3354 117.107 47.1722 117.133C47.009 117.16 46.8544 117.224 46.7208 117.322C46.5873 117.419 46.4787 117.547 46.4038 117.694C46.3289 117.842 46.2899 118.005 46.2899 118.17C46.2899 118.335 46.3289 118.498 46.4038 118.646C46.4787 118.793 46.5873 118.921 46.7208 119.018C46.8544 119.116 47.009 119.18 47.1722 119.207C47.3354 119.233 47.5026 119.22 47.66 119.17H77.79C77.9475 119.22 78.1146 119.233 78.2778 119.207C78.441 119.18 78.5956 119.116 78.7292 119.018C78.8627 118.921 78.9713 118.793 79.0462 118.646C79.1211 118.498 79.1602 118.335 79.1602 118.17C79.1602 118.005 79.1211 117.842 79.0462 117.694C78.9713 117.547 78.8627 117.419 78.7292 117.322C78.5956 117.224 78.441 117.16 78.2778 117.133C78.1146 117.107 77.9475 117.12 77.79 117.17Z" fill="white"/>
<path d="M28.09 6.45V8.13L29.84 8.07V6.44C29.5442 6.50399 29.2426 6.5375 28.94 6.54C28.6543 6.54045 28.3693 6.51027 28.09 6.45Z" fill="white"/>
<path d="M36.8 6.45V7.86H38.54V6.44C38.2442 6.50399 37.9426 6.5375 37.64 6.54C37.3575 6.54082 37.0759 6.51064 36.8 6.45Z" fill="white"/>
<path d="M45.49 6.45V7.67H47.24V6.44C46.9442 6.50399 46.6426 6.5375 46.34 6.54C46.0543 6.54045 45.7693 6.51027 45.49 6.45Z" fill="white"/>
<path d="M37.64 6.23C38.4964 6.25717 39.329 5.9461 39.9578 5.36409C40.5866 4.78208 40.961 3.97592 41 3.12C40.9343 2.26331 40.5475 1.46301 39.9171 0.879163C39.2868 0.295317 38.4592 -0.0290403 37.6 -0.0290403C36.7408 -0.0290403 35.9133 0.295317 35.2829 0.879163C34.6525 1.46301 34.2658 2.26331 34.2 3.12C34.2192 3.55092 34.3237 3.97375 34.5074 4.36399C34.6912 4.75423 34.9506 5.10412 35.2705 5.39339C35.5905 5.68266 35.9647 5.90556 36.3714 6.04917C36.7782 6.19278 37.2094 6.25424 37.64 6.23Z" fill="white"/>
<path d="M28.94 6.23C29.8032 6.26798 30.6461 5.96176 31.2836 5.37862C31.9211 4.79548 32.3011 3.98311 32.34 3.12C32.2743 2.26331 31.8875 1.46301 31.2571 0.879163C30.6268 0.295317 29.7992 -0.0290403 28.94 -0.0290403C28.0808 -0.0290403 27.2532 0.295317 26.6229 0.879163C25.9925 1.46301 25.6058 2.26331 25.54 3.12C25.5815 3.98219 25.9623 4.79299 26.5992 5.37559C27.2361 5.95818 28.0775 6.26532 28.94 6.23Z" fill="white"/>
<path d="M46.34 6.23C47.2025 6.26532 48.0439 5.95818 48.6808 5.37559C49.3178 4.79299 49.6985 3.98219 49.74 3.12C49.6743 2.26331 49.2875 1.46301 48.6571 0.879163C48.0268 0.295317 47.1992 -0.0290403 46.34 -0.0290403C45.4808 -0.0290403 44.6532 0.295317 44.0229 0.879163C43.3925 1.46301 43.0058 2.26331 42.94 3.12C42.9789 3.98311 43.3589 4.79548 43.9964 5.37862C44.6339 5.96176 45.4768 6.26798 46.34 6.23Z" fill="white"/>
<path d="M11.33 133V126.66C11.3454 126.282 11.4354 125.911 11.5947 125.568C11.754 125.225 11.9795 124.917 12.2583 124.661C12.5371 124.406 12.8636 124.208 13.2192 124.079C13.5747 123.95 13.9522 123.893 14.33 123.91H14.45C13.83 118.15 13.43 112.38 13.25 106.6C12.2454 106.848 11.3448 107.407 10.6767 108.197C10.0087 108.987 9.60734 109.968 9.53 111V141.13C9.53 143.76 12.2 145.9 15.53 145.9H22.66C25.94 145.9 28.61 143.76 28.61 141.13V135.75H14.3C13.5427 135.774 12.8064 135.499 12.2504 134.985C11.6945 134.47 11.3638 133.757 11.33 133Z" fill="white"/>
<path d="M12.69 35.89C12.9164 35.9063 13.1436 35.9063 13.37 35.89C14.5 35.89 15.64 35.95 16.78 35.98C17.1035 35.877 17.4405 35.8231 17.78 35.82H107.63C107.969 35.8241 108.306 35.878 108.63 35.98C109.76 35.98 110.9 35.93 112.03 35.89C112.256 35.9063 112.484 35.9063 112.71 35.89C113.278 35.8671 113.827 35.6794 114.29 35.35C114.29 35.35 114.37 35.26 114.36 35.22C113.47 27.77 109.36 19.67 101.58 9.75C101.085 9.30502 100.469 9.01628 99.81 8.92C99.5437 8.85993 99.2727 8.82312 99 8.81C86.66 8.36 74.86 8.13 63 8.13H62.51C50.6 8.13 38.8 8.36 26.51 8.81C26.224 8.82135 25.9395 8.85817 25.66 8.92C25.0011 9.01628 24.3854 9.30502 23.89 9.75C16 19.67 11.93 27.77 11 35.22C11.0113 35.2688 11.0355 35.3137 11.07 35.35C11.5444 35.6869 12.1084 35.8748 12.69 35.89ZM98.09 11.6C98.2079 11.4673 98.3527 11.3611 98.5147 11.2887C98.6768 11.2163 98.8525 11.1792 99.03 11.18C99.88 11.18 101.42 11.92 103.93 15.46C106.93 19.73 108.42 22.63 107.93 23.46C107.93 23.55 107.78 23.66 107.48 23.66C104.89 23.56 101.12 23.16 100.87 22.58C100.62 22 97.62 13.23 97.6 13.16C97.5738 12.8805 97.6036 12.5985 97.6877 12.3306C97.7719 12.0627 97.9086 11.8143 98.09 11.6ZM21.52 15.46C24.03 11.92 25.57 11.18 26.42 11.18C26.5977 11.1779 26.7738 11.2144 26.9361 11.2869C27.0983 11.3594 27.243 11.4662 27.36 11.6C27.543 11.8084 27.683 12.0507 27.7723 12.3132C27.8615 12.5758 27.8981 12.8533 27.88 13.13C27.88 13.2 24.88 22 24.61 22.55C24.34 23.1 20.61 23.55 18 23.63C17.9138 23.6415 17.8262 23.629 17.7467 23.5937C17.6673 23.5583 17.5992 23.5017 17.55 23.43C17 22.63 18.5 19.73 21.52 15.46Z" fill="white"/>
<path d="M8.99001 131.86H8.07001V133.5H8.99001V131.86Z" fill="white"/>
<path d="M8.99001 129.16H8.07001V130.8H8.99001V129.16Z" fill="white"/>
<path d="M8.99001 125.63H8.07001V127.27H8.99001V125.63Z" fill="white"/>
<path d="M8.99001 122.1H8.07001V123.74H8.99001V122.1Z" fill="white"/>
<path d="M8.99001 119.4H8.07001V121.04H8.99001V119.4Z" fill="white"/>
<path d="M117.5 131.86H116.58V133.5H117.5V131.86Z" fill="white"/>
<path d="M117.5 129.16H116.58V130.8H117.5V129.16Z" fill="white"/>
<path d="M117.5 125.63H116.58V127.27H117.5V125.63Z" fill="white"/>
<path d="M117.5 122.1H116.58V123.74H117.5V122.1Z" fill="white"/>
<path d="M117.5 119.4H116.58V121.04H117.5V119.4Z" fill="white"/>
</g>
<defs>
<clipPath id="clip0_110_109">
<rect width="124.47" height="145.9" fill="white"/>
</clipPath>
</defs>
</svg>
