<svg width="194" height="143" viewBox="0 0 194 143" fill="none" xmlns="http://www.w3.org/2000/svg">
<path d="M184.3 54.88C180.24 50.17 175.81 46.17 163.23 45.01L159.69 12.12C159.617 11.5642 159.361 11.0486 158.963 10.654C158.564 10.2594 158.046 10.0083 157.49 9.94C145.181 8.39209 132.795 7.54738 120.39 7.41C118.75 6.29 115.82 5.12 114.27 5.41C113.699 5.5249 113.163 5.77198 112.704 6.13145C112.246 6.49092 111.878 6.95277 111.63 7.48C104.056 7.62367 96.4979 8.23819 89 9.32C89.1414 9.07495 89.2009 8.79121 89.17 8.51C88.94 7.38 84.38 5.1 82.34 5.51C81.8344 5.63672 81.3591 5.86301 80.9419 6.17564C80.5248 6.48827 80.1742 6.88095 79.9107 7.33071C79.6472 7.78047 79.476 8.27827 79.4072 8.79499C79.3384 9.3117 79.3734 9.83695 79.51 10.34C79.6636 11.2312 80.0975 12.0501 80.7485 12.6778C81.3995 13.3055 82.2338 13.7091 83.13 13.83V44.4C80.32 44.63 75.32 45.12 69.21 46.06C69.21 44.81 69.21 43.23 69.27 41.4C69.27 39.12 69.27 36.46 69.27 33.61C69.27 32.19 69.27 30.71 69.22 29.22C69.17 27.73 69.22 26.22 69.15 24.68C69.08 23.14 69.08 21.68 69.05 20.15C69.0668 19.4033 69.0132 18.6567 68.89 17.92C68.75 17.19 68.52 16.47 68.4 15.75C68.28 15.03 68.3 14.34 68.26 13.66C68.22 12.98 68.26 12.3 68.18 11.66V10.66V10.45C68.18 10.45 68.18 10.61 68.18 10.53V9.38V9.04C68.1895 8.81544 68.2129 8.59168 68.25 8.37C68.375 7.54575 68.628 6.7461 69 6C69.2654 5.46098 69.6017 4.95987 70 4.51C70.2271 4.24312 70.4856 4.00471 70.77 3.8L70.97 3.67L69.32 0C69.1068 0.1362 68.903 0.286537 68.71 0.45C68.2563 0.849398 67.835 1.28409 67.45 1.75C66.1201 3.45324 65.2336 5.45987 64.87 7.59C64.7983 7.94032 64.7449 8.29413 64.71 8.65C64.71 8.83 64.71 9.01 64.64 9.2V9.66V10.12V10.68V11.68C64.64 12.33 64.64 13 64.56 13.68C64.48 14.36 64.56 15.06 64.42 15.77C64.28 16.48 64.07 17.21 63.93 17.94C63.8068 18.6767 63.7532 19.4233 63.77 20.17C63.77 21.66 63.7 23.17 63.67 24.7C63.64 26.23 63.62 27.7 63.6 29.24C63.58 30.78 63.6 32.24 63.55 33.63C63.55 36.48 63.55 39.14 63.55 41.42C63.55 43.7 63.55 45.6 63.61 46.93V47C52 49.15 38.22 52.79 27.57 59C26.4498 59.671 25.5222 60.6204 24.8774 61.7558C24.2326 62.8913 23.8924 64.1742 23.89 65.48C23.88 65.5057 23.88 65.5343 23.89 65.56V67.35C12.7 68.07 2.56 78.74 0.410002 92.83C-1.59 106.17 4.17 118.22 13.8 122.29L13.95 122.35C14.31 122.49 14.67 122.63 15.03 122.75C18.8623 123.995 22.8081 124.859 26.81 125.33C27.3 125.42 27.81 125.5 28.28 125.56C28.4397 125.574 28.6003 125.574 28.76 125.56C33.1824 125.975 37.6317 125.125 41.59 123.11L47.25 124.49C50.11 131.21 55.2 136.25 61.66 138.36C65.6351 139.88 69.7381 141.041 73.92 141.83C74.8132 142.045 75.718 142.209 76.63 142.32C76.83 142.32 77.01 142.32 77.2 142.32C91.03 143.64 104.14 133.59 108.47 119C108.58 119.01 108.69 119.01 108.8 119C108.933 119.01 109.067 119.01 109.2 119L134.15 115.2C136.677 118.132 140.107 120.141 143.9 120.91C150.21 122.71 159.16 124.5 164.56 124.73H164.71H165.58H166.46C178.91 124.18 190.46 111.08 192.98 92.88C194.58 81.52 192.34 70.94 187.56 63.67C188.39 62.36 188.44 59.7 184.3 54.88ZM57.9 123.21C57.68 122.6 57.47 121.95 57.23 121.29C57 120.43 56.7 119.55 56.52 118.64C56.34 117.73 56.09 116.8 55.97 115.86L55.75 114.45C55.71 113.97 55.67 113.5 55.63 113.04C55.5474 112.119 55.5141 111.194 55.53 110.27C55.5153 109.402 55.5521 108.534 55.64 107.67C55.64 107.26 55.71 106.85 55.74 106.46C55.77 106.07 55.86 105.71 55.92 105.35C56.05 104.64 56.13 103.98 56.27 103.35C56.41 102.72 56.56 102.27 56.67 101.85L57.02 100.54L56.46 101.78C56.28 102.18 56.06 102.66 55.82 103.21C55.58 103.76 55.39 104.42 55.14 105.13L54.76 106.24C54.66 106.63 54.56 107.04 54.46 107.45C54.2261 108.323 54.0391 109.207 53.9 110.1C53.7238 111.052 53.6002 112.014 53.53 112.98L53.41 114.48V115.99C53.41 116.99 53.41 117.99 53.5 118.92C53.3 118.24 53.07 117.55 52.92 116.83C52.72 115.95 52.51 115.05 52.39 114.15C52.32 113.69 52.23 113.24 52.18 112.78C52.13 112.32 52.1 111.87 52.07 111.42C51.9875 110.529 51.9541 109.634 51.97 108.74C51.9582 107.898 51.9982 107.057 52.09 106.22C52.09 105.81 52.15 105.42 52.18 105.04C52.21 104.66 52.31 104.31 52.37 103.96C52.49 103.27 52.57 102.62 52.71 102.05C52.85 101.48 53 100.99 53.11 100.59L53.45 99.31L52.83 100.49L52.11 101.84C51.85 102.37 51.62 103 51.33 103.68C51.19 104.03 51.04 104.38 50.89 104.76C50.74 105.14 50.65 105.52 50.52 105.93C50.2301 106.772 49.9897 107.63 49.8 108.5C49.5736 109.43 49.3967 110.371 49.27 111.32C49.1967 111.8 49.1267 112.29 49.06 112.79C49 113.28 48.99 113.79 48.95 114.28C48.91 114.77 48.88 115.47 48.87 116.06C48.87 115.87 48.79 115.68 48.75 115.47C47.35 107.57 50.28 94.72 58.75 87.97C63.94 83.85 69.85 81.29 75.52 82.17C77.8306 82.5434 80.0828 83.2157 82.22 84.17C82.22 84.17 66 85.79 59.57 101.4C56.6822 108.301 56.0966 115.95 57.9 123.21ZM26.47 65.49C26.4629 64.606 26.6848 63.7351 27.1142 62.9623C27.5435 62.1895 28.1656 61.541 28.92 61.08C38.77 55.36 51.58 51.86 62.55 49.74C63.737 50.2941 65.0419 50.5482 66.35 50.48C68.71 50.48 70.61 49.89 70.61 49.16C70.61 48.9 70.37 48.67 69.97 48.46C77.74 47.27 83.64 46.83 85.29 46.72C88.41 46.89 96.24 47.35 103.02 47.82L102.63 47.88C96.09 48.95 87.43 50.62 78.82 52.49C74.51 53.42 70.22 54.39 66.2 55.32C62.5196 56.114 58.8872 57.1156 55.32 58.32C53.902 58.7989 52.513 59.3599 51.16 60C50.1175 60.5034 49.1146 61.0851 48.16 61.74C47.5576 62.1583 46.9861 62.6195 46.45 63.12L45.9 63.66L46.47 63.14C47.0227 62.6564 47.611 62.2152 48.23 61.82C49.1883 61.209 50.1911 60.6708 51.23 60.21C52.5898 59.6014 53.9858 59.0771 55.41 58.64C59.0023 57.5741 62.6513 56.7094 66.34 56.05C70.39 55.26 74.71 54.44 79.04 53.67C87.7 52.11 96.39 50.74 102.92 49.91L106.01 49.53C95.25 51.05 82.07 53.53 66.65 56.81C58.24 58.66 49.89 60.9 46 66L28 64.87L43.82 69.52C44.82 69.65 45.96 69.76 47.08 69.84C47.62 69.8867 48.17 69.9167 48.73 69.93H49.57H50.41C51.51 69.87 52.67 69.78 53.88 69.64C58.69 69.12 63.88 68.33 68.98 67.52C79.25 65.88 89.51 64.06 97.19 62.67L110 60.32L97.29 63.18C89.67 64.87 79.5 67.09 69.29 69.18C64.18 70.18 59.07 71.18 54.19 71.91C52.98 72.09 51.75 72.25 50.51 72.35H49.6H48.7C48.1 72.35 47.52 72.35 46.95 72.35C45.85 72.35 44.78 72.26 43.76 72.17C42.87 80.84 41.86 111.86 41.66 118.38H41.53L27.53 114.28L26.47 65.49ZM111.16 10C111.16 10.21 111.16 10.42 111.23 10.63C111.316 11.0333 111.447 11.4257 111.62 11.8C104.06 11.73 97.44 11.53 92.69 11.35C98.74 10.54 105 10.12 111.16 10ZM111.92 10L112.63 10.05V9.96C112.522 9.42005 112.502 8.86636 112.57 8.32C112.601 8.07457 112.658 7.83317 112.74 7.6C112.74 7.6 112.79 7.89 112.85 8.32C112.91 8.75 113 9.32 113.11 9.87C113.115 9.94326 113.115 10.0167 113.11 10.09H113.62V9.98C113.513 9.44342 113.492 8.89303 113.56 8.35C113.59 8.10119 113.647 7.85639 113.73 7.62C113.73 7.62 113.73 7.92 113.84 8.34C113.95 8.76 113.99 9.34 114.1 9.89L114.16 10.14H114.61C114.502 9.60686 114.482 9.05967 114.55 8.52C114.581 8.27148 114.638 8.02685 114.72 7.79C114.72 7.79 114.77 8.09 114.83 8.52C114.89 8.95 114.98 9.52 115.09 10.06C115.094 10.0932 115.094 10.1268 115.09 10.16C115.273 10.1697 115.457 10.1697 115.64 10.16C115.84 10.16 116.02 10.16 116.15 10.16H116.35C116.141 10.2813 115.915 10.3722 115.68 10.43C115.516 10.4793 115.349 10.5161 115.18 10.54C115.267 10.8782 115.37 11.212 115.49 11.54C115.58 11.73 115.64 11.91 115.7 12.02C115.732 12.081 115.759 12.1446 115.78 12.21L115.62 12.07C115.48 11.9491 115.356 11.8114 115.25 11.66C115.098 11.4469 114.967 11.2191 114.86 10.98C114.798 10.8446 114.748 10.704 114.71 10.56H114.25C114.33 10.84 114.42 11.11 114.5 11.33C114.58 11.55 114.65 11.7 114.71 11.81C114.742 11.871 114.769 11.9346 114.79 12L114.63 11.87C114.491 11.7451 114.366 11.6041 114.26 11.45C114.105 11.2419 113.975 11.0172 113.87 10.78C113.87 10.69 113.8 10.6 113.77 10.52L113.23 10.42C113.301 10.7091 113.391 10.9931 113.5 11.27C113.58 11.46 113.64 11.64 113.7 11.75L113.79 11.94C113.733 11.8974 113.68 11.8506 113.63 11.8C113.487 11.6797 113.359 11.542 113.25 11.39C113.099 11.1759 112.969 10.9483 112.86 10.71C112.8 10.57 112.75 10.42 112.7 10.27H112.55C112.329 10.179 112.118 10.065 111.92 9.93V10ZM114.67 14.35C114.67 14.58 114.67 14.89 114.67 15.27C114.67 16.2 114.79 17.52 114.83 19.12C114.87 20.72 114.94 22.57 114.96 24.56C114.98 26.55 114.96 28.67 115.02 30.79C115.08 32.91 115.02 35.04 114.96 37.03C114.9 39.02 114.87 40.88 114.83 42.47C114.79 44.06 114.7 45.39 114.67 46.32C114.64 47.25 114.59 47.78 114.59 47.78C114.59 47.78 114.59 47.25 114.5 46.32C114.41 45.39 114.38 44.07 114.34 42.47C114.3 40.87 114.23 39.02 114.21 37.03C114.19 35.04 114.16 32.92 114.16 30.79C114.16 28.66 114.16 26.55 114.21 24.56C114.26 22.57 114.31 20.71 114.34 19.12C114.37 17.53 114.47 16.2 114.5 15.27C114.5 14.88 114.5 14.57 114.56 14.33L114.67 14.35ZM180.23 56.59C175.96 52.54 171.51 50.8 167.17 50.8C159.07 50.8 151.37 56.8 145.96 64.91C143.681 68.5599 141.908 72.5027 140.69 76.63L140.55 76.93L129.3 75.37L139.4 52.52L153.56 53.26L142.43 50.91L159.22 47.64L170.09 49.71L163.69 47.54C174.69 48.68 178.62 52.17 182.3 56.45C183.406 57.6382 184.327 58.9867 185.03 60.45C183.627 58.9167 182.01 57.5931 180.23 56.52V56.59ZM146.73 113.96C146.35 113.56 145.98 113.13 145.59 112.7C145.18 112.211 144.796 111.7 144.44 111.17C144.039 110.651 143.672 110.106 143.34 109.54C142.63 108.387 142.005 107.184 141.47 105.94C141.2 105.31 140.92 104.68 140.65 104.06C140.38 103.44 140.23 102.76 140.02 102.11C139.81 101.46 139.61 100.82 139.41 100.18C139.21 99.54 139.13 98.88 138.98 98.25C138.83 97.62 138.72 96.98 138.6 96.36C138.454 95.7614 138.35 95.1532 138.29 94.54C138.16 93.34 138.04 92.21 137.93 91.17C137.817 90.2142 137.764 89.2524 137.77 88.29C137.77 87.43 137.77 86.68 137.77 86.07V84.07L137.46 86C137.39 86.62 137.3 87.37 137.2 88.23C137.062 89.191 136.981 90.1594 136.96 91.13L136.86 94.59C136.821 95.2194 136.821 95.8506 136.86 96.48C136.91 97.13 136.95 97.79 136.99 98.48C137.03 99.17 137.04 99.85 137.17 100.54C137.3 101.23 137.4 101.93 137.51 102.63C137.62 103.33 137.72 104.06 137.91 104.77C138.1 105.48 138.3 106.18 138.5 106.89C138.5 107.02 138.57 107.13 138.6 107.25L137.79 105.8C137.45 105.23 137.25 104.59 136.96 103.99C136.67 103.39 136.43 102.75 136.16 102.13C135.89 101.51 135.75 100.85 135.54 100.22C135.33 99.59 135.13 98.94 134.93 98.32C134.73 97.7 134.64 97.04 134.49 96.41C134.34 95.78 134.21 95.16 134.08 94.55C133.927 93.9586 133.817 93.3571 133.75 92.75C133.6 91.57 133.45 90.45 133.31 89.42C133.176 88.4755 133.099 87.5238 133.08 86.57C133.08 85.71 132.99 84.97 132.96 84.36C132.9 83.13 132.86 82.42 132.86 82.42L132.56 84.33C132.47 84.95 132.35 85.69 132.22 86.54C132.048 87.4927 131.927 88.4542 131.86 89.42C131.78 90.49 131.69 91.64 131.6 92.87C131.543 93.4983 131.526 94.1296 131.55 94.76C131.55 95.41 131.55 96.07 131.55 96.76C131.55 97.45 131.55 98.12 131.55 98.82C131.55 99.52 131.7 100.23 131.77 100.94L132.01 103.11C132.15 103.83 132.3 104.56 132.45 105.28C132.6 106 132.71 106.75 132.95 107.46L133.08 107.9L132.75 107.16C129.75 100.09 128.29 87.34 130.68 79.47L141.96 80.86C138.52 95.93 142.57 106.87 146.73 113.89V113.96ZM89 84.71C83.86 76.61 73.32 78.45 73.32 78.45C73.32 78.45 85.11 75.9 94.84 81.62C104.57 87.34 104.38 92.14 104.38 92.14C99.07 84.68 89 84.71 89 84.71ZM80.58 72.1L78.2 72.58C77.42 72.74 76.64 72.86 75.89 72.99C74.38 73.23 72.97 73.42 71.75 73.54C70.3922 73.6983 69.027 73.7851 67.66 73.8C67.66 73.8 69.22 73.26 71.56 72.62C72.73 72.3 74.1 71.93 75.56 71.62C77.02 71.31 78.61 70.9 80.19 70.54L82.56 70C83.34 69.82 84.11 69.7 84.86 69.55C86.35 69.26 87.75 69.03 88.96 68.85C91.37 68.47 93.01 68.35 93.01 68.35C93.01 68.35 91.51 69.01 89.2 69.76C88.04 70.15 86.68 70.56 85.2 70.95C84.47 71.15 83.71 71.37 82.93 71.54L80.58 72.1ZM102.58 28.17C103.3 27.41 104.04 26.7 104.74 25.98L105.48 25.26V16.09H113.13V41.89L112.56 41.57C110.323 40.4604 107.939 39.6758 105.48 39.24V31.35L104.92 32C104.4 32.58 103.92 33.19 103.33 33.79L101.92 35.31V38.74C100.829 38.6513 99.7335 38.6313 98.64 38.68L98.25 39.07C97.14 40.16 96.07 41.15 95.14 41.98C94.61 42.46 94.14 42.88 93.71 43.24C93.8033 43.3667 93.9033 43.4967 94.01 43.63H93.18C92.42 44.27 91.94 44.63 91.94 44.63C91.94 44.63 92.18 44.27 92.61 43.63L86.9 43.97V15.97H101.9V28.86L102.58 28.17ZM148.87 48.38C146.66 48.81 144.44 49.17 142.23 49.57L135.84 50.69L134 55.5C133.35 57.17 132.72 58.86 132 60.5L130 65.5C129.3 67.16 128.62 68.83 127.89 70.5C128.44 68.78 129.04 67.09 129.61 65.39L131.4 60.31C131.99 58.61 132.64 56.93 133.26 55.24L135.13 50.19L135.22 49.97H135.46L142.11 48.87C144.33 48.52 146.55 48.13 148.77 47.8C153.22 47.12 157.66 46.44 162.12 45.86C157.7 46.74 153.29 47.57 148.87 48.38ZM95.82 41.83C96.24 41.43 98.36 40.89 101.92 41.22V43.22L98.02 43.42C97.1602 43.0916 96.4016 42.5434 95.82 41.83ZM105.48 43.03V41.76C106.788 42.0311 108.074 42.3953 109.33 42.85L105.48 43.03ZM136.42 40.62C136.42 39.18 136.31 37.5 136.29 35.7C136.27 33.9 136.29 31.99 136.23 30.07C136.17 28.15 136.23 26.24 136.29 24.44C136.35 22.64 136.39 20.96 136.42 19.52C136.45 18.08 136.55 16.89 136.58 16.05C136.61 15.21 136.66 14.73 136.66 14.73C136.66 14.73 136.66 15.21 136.75 16.05C136.84 16.89 136.87 18.05 136.91 19.52C136.95 20.99 137.02 22.64 137.04 24.44C137.06 26.24 137.09 28.15 137.1 30.07C137.11 31.99 137.1 33.91 137.04 35.7C136.98 37.49 136.94 39.18 136.91 40.62C136.88 42.06 136.78 43.25 136.75 44.09C136.72 44.93 136.66 45.41 136.66 45.41C136.66 45.41 136.66 44.93 136.58 44.09C136.5 43.25 136.46 42.05 136.42 40.62ZM124.36 47.82C126.18 47.63 128.29 47.37 130.56 47.15L137.66 46.48L144.78 45.91C147.05 45.72 149.18 45.61 151 45.49C152.82 45.37 154.34 45.31 155.4 45.26L157.08 45.19L155.42 45.41C154.36 45.54 152.86 45.75 151.04 45.95C149.22 46.15 147.12 46.41 144.85 46.62L137.74 47.29L130.62 47.86C128.35 48.05 126.23 48.16 124.41 48.28C122.59 48.4 121.07 48.46 120 48.52L118.33 48.58L119.99 48.36C121 48.23 122.55 48 124.36 47.82ZM112.8 94.9C112.05 94.98 111.41 95.01 110.97 95.04C110.53 95.07 110.28 95.04 110.28 95.04L110.94 94.85C111.37 94.75 111.94 94.57 112.72 94.41C114.19 94.07 116.16 93.68 118.14 93.35C120.12 93.02 122.14 92.78 123.63 92.64C124.38 92.57 125.02 92.54 125.46 92.51H126.15C126.15 92.51 125.91 92.59 125.48 92.7C125.05 92.81 124.48 92.98 123.71 93.15C122.24 93.49 120.27 93.88 118.29 94.15C116.31 94.42 114.3 94.77 112.8 94.9ZM125.48 84.47C125.06 84.58 124.48 84.75 123.71 84.92C122.24 85.26 120.27 85.65 118.29 85.92C116.31 86.19 114.29 86.5 112.8 86.64C112.05 86.71 111.41 86.74 110.97 86.77C110.53 86.8 110.28 86.77 110.28 86.77L110.94 86.59C111.37 86.48 111.94 86.31 112.72 86.14C114.19 85.8 116.16 85.41 118.14 85.08C120.12 84.75 122.14 84.51 123.63 84.37C124.38 84.3 125.02 84.27 125.46 84.24H126.15C126.15 84.24 125.91 84.36 125.48 84.47ZM125.48 76.25C125.06 76.36 124.48 76.53 123.71 76.7C122.24 77.04 120.27 77.43 118.29 77.76C116.31 78.09 114.29 78.33 112.8 78.47C112.05 78.54 111.41 78.57 110.97 78.6H110.28C110.28 78.6 110.52 78.52 110.94 78.41C111.36 78.3 111.94 78.13 112.72 77.96C114.19 77.62 116.16 77.23 118.14 76.96C120.12 76.69 122.14 76.38 123.63 76.25C124.38 76.17 125.02 76.14 125.46 76.11C125.9 76.08 126.15 76.11 126.15 76.11L125.48 76.25ZM149.91 16.09L153.47 43.64C150.58 43.32 147.09 42.99 143.27 42.73L145 36.44C145.57 34.37 143.57 32.57 140.52 32.44L139 32.35V16.09H149.91ZM135.41 32.18L132.3 32C131.065 31.9421 129.832 32.1572 128.69 32.63L127.31 16.06H135.41V32.18ZM121 42.43L117.49 42.53V16.09H118.81L121 42.43ZM84.77 34.34C84.77 36.1 84.67 37.75 84.63 39.16C84.59 40.57 84.51 41.75 84.47 42.58C84.43 43.41 84.39 43.87 84.39 43.87C84.39 43.87 84.39 43.4 84.31 42.58C84.23 41.76 84.19 40.58 84.15 39.16C84.11 37.74 84 36.1 84 34.34C84 32.58 84 30.69 83.95 28.81C83.9 26.93 84 25 84 23.27C84 21.54 84.1 19.86 84.14 18.45C84.18 17.04 84.26 15.86 84.3 15.03C84.34 14.2 84.38 13.74 84.38 13.74C84.38 13.74 84.38 14.21 84.46 15.03C84.54 15.85 84.58 17.03 84.62 18.45C84.66 19.87 84.73 21.51 84.76 23.27C84.79 25.03 84.76 26.92 84.76 28.81C84.76 30.7 84.81 32.57 84.77 34.34ZM121.23 9.89C131.4 10.01 140.65 10.67 147.23 11.28C139.85 11.49 129.62 11.72 119.82 11.77C120.36 11.1986 120.833 10.5679 121.23 9.89ZM83.38 128.59C83.59 128.59 83.8 128.52 84 128.47C85.1586 128.22 86.2785 127.817 87.33 127.27C88.242 126.776 89.0942 126.179 89.87 125.49C90.4902 124.905 91.0528 124.262 91.55 123.57C91.9327 123.048 92.2674 122.492 92.55 121.91C92.7252 121.551 92.8755 121.18 93 120.8L93.15 120.4L92.85 120.72C92.66 120.92 92.39 121.24 92.02 121.6C91.6022 122.046 91.1581 122.467 90.69 122.86C90.1023 123.372 89.4773 123.84 88.82 124.26C88.0583 124.747 87.2512 125.159 86.41 125.49C85.4794 125.863 84.5101 126.132 83.52 126.29C82.4537 126.474 81.3716 126.551 80.29 126.52C79.2279 126.488 78.1778 126.285 77.18 125.92C76.7808 125.757 76.3902 125.573 76.01 125.37C75.7 125.08 75.39 124.76 75.09 124.37C74.6992 123.971 74.3351 123.547 74 123.1C73.5851 122.482 73.2109 121.837 72.88 121.17C72.5333 120.469 72.2392 119.744 72 119C71.5419 117.561 71.2697 116.068 71.19 114.56V114.02V113.94C71.1721 113.079 71.2089 112.217 71.3 111.36C71.4049 110.46 71.5719 109.567 71.8 108.69C72.2622 106.913 73.0121 105.224 74.02 103.69C75.0284 102.133 76.3169 100.777 77.82 99.69C79.2974 98.6261 80.9741 97.871 82.75 97.47C83.6049 97.2815 84.4751 97.171 85.35 97.14C86.1375 97.1643 86.9165 97.3093 87.66 97.57C89.0452 98.0846 90.1918 99.0923 90.88 100.4C91.469 101.596 91.8479 102.885 92 104.21C92.1283 105.265 92.1851 106.327 92.17 107.39C92.17 108.28 92.12 108.99 92.08 109.47V110.21L92.29 109.5C92.42 109.03 92.59 108.34 92.77 107.44C92.9764 106.355 93.0967 105.254 93.13 104.15C93.176 102.713 92.9591 101.279 92.49 99.92C93.2121 100.767 93.7776 101.735 94.16 102.78C94.52 103.776 94.7682 104.809 94.9 105.86C95.02 106.74 95.07 107.45 95.09 107.93C95.11 108.41 95.09 108.67 95.09 108.67C95.09 108.67 95.09 108.41 95.21 107.94C95.3169 107.244 95.387 106.543 95.42 105.84C95.4636 104.727 95.3797 103.613 95.17 102.52C94.9394 101.338 94.4919 100.209 93.85 99.19C95.5174 100.998 96.7753 103.145 97.538 105.483C98.3008 107.821 98.5505 110.296 98.27 112.74C97.43 121.5 90.89 128.34 83.38 128.59ZM113.56 7C113.42 6.9837 113.28 6.9837 113.14 7C113.275 6.94873 113.416 6.91837 113.56 6.91C114.085 6.89027 114.603 7.03729 115.04 7.33C115.657 7.72176 116.164 8.26589 116.51 8.91C116.603 9.08517 116.687 9.26545 116.76 9.45C116.83 9.64331 116.891 9.84026 116.94 10.04C117.04 10.452 117.071 10.8779 117.03 11.3C116.982 11.7375 116.82 12.1546 116.56 12.51C116.283 12.8664 115.884 13.1084 115.44 13.19C115.022 13.2561 114.594 13.197 114.21 13.02C113.888 12.8775 113.591 12.6851 113.33 12.45C112.954 12.1173 112.648 11.7127 112.43 11.26C112.361 11.1391 112.304 11.0118 112.26 10.88L112.21 10.75C112.298 10.9138 112.399 11.0709 112.51 11.22C112.788 11.6043 113.126 11.9418 113.51 12.22C113.762 12.4141 114.042 12.5692 114.34 12.68C114.662 12.7856 115.004 12.8164 115.34 12.77C115.686 12.6785 115.992 12.4766 116.212 12.1949C116.432 11.9133 116.554 11.5675 116.56 11.21C116.6 10.8392 116.579 10.4644 116.5 10.1C116.461 9.9205 116.411 9.74352 116.35 9.57C116.29 9.39619 116.22 9.22592 116.14 9.06C115.848 8.45383 115.421 7.92333 114.89 7.51C114.506 7.21308 114.044 7.0357 113.56 7ZM80.85 9.74C80.8547 9.71018 80.8547 9.67982 80.85 9.65C80.7476 9.14995 80.7273 8.63656 80.79 8.13C80.8201 7.89848 80.8737 7.67063 80.95 7.45L81.05 8.13C81.11 8.53 81.19 9.05 81.3 9.57C81.2954 9.63992 81.2954 9.71008 81.3 9.78H81.77V9.67C81.6676 9.16995 81.6473 8.65656 81.71 8.15C81.7401 7.91848 81.7937 7.69063 81.87 7.47L81.97 8.14C82.03 8.55 82.11 9.07 82.22 9.59C82.22 9.66 82.22 9.74 82.22 9.82H82.64C82.562 9.31969 82.562 8.81031 82.64 8.31C82.6641 8.07744 82.7179 7.84891 82.8 7.63L82.9 8.31C82.9 8.71 83.04 9.23 83.14 9.75C83.1447 9.77982 83.1447 9.81018 83.14 9.84H84.31C84.1175 9.95723 83.9085 10.0449 83.69 10.1L83.23 10.2C83.3016 10.5238 83.3985 10.8414 83.52 11.15C83.6 11.33 83.65 11.5 83.71 11.6L83.79 11.78L83.64 11.65C83.5094 11.5332 83.392 11.4024 83.29 11.26C83.0705 10.9543 82.8986 10.6172 82.78 10.26H82.36C82.43 10.52 82.51 10.77 82.59 10.98C82.67 11.19 82.73 11.33 82.79 11.43C82.8173 11.4884 82.8407 11.5485 82.86 11.61L82.71 11.48C82.583 11.3626 82.469 11.2318 82.37 11.09C82.1768 10.8229 82.022 10.5301 81.91 10.22L81.4 10.13C81.48 10.42 81.57 10.69 81.65 10.92C81.73 11.15 81.79 11.27 81.85 11.37C81.8773 11.4284 81.9007 11.4885 81.92 11.55L81.77 11.42C81.643 11.3026 81.529 11.1718 81.43 11.03C81.2087 10.716 81.0398 10.3681 80.93 10H80.79C80.581 9.92315 80.3801 9.82602 80.19 9.71L80.85 9.74ZM81.51 12C81.1606 11.6856 80.8724 11.3093 80.66 10.89C80.59 10.74 80.54 10.62 80.51 10.54L80.46 10.41C80.5449 10.5619 80.6384 10.7088 80.74 10.85C80.9984 11.231 81.3157 11.5685 81.68 11.85C81.914 12.0362 82.1777 12.1815 82.46 12.28C82.7556 12.3811 83.0714 12.4086 83.38 12.36C83.6992 12.2719 83.9815 12.0833 84.1851 11.8221C84.3886 11.5609 84.5026 11.2411 84.51 10.91C84.5462 10.5757 84.5259 10.2376 84.45 9.91C84.45 9.74 84.37 9.58 84.32 9.42C84.27 9.26 84.19 9.09 84.12 8.94C83.8754 8.35005 83.491 7.8284 83 7.42C82.645 7.13474 82.2136 6.96079 81.76 6.92C81.6339 6.90378 81.5061 6.90378 81.38 6.92L81.2 7H81.33C81.4554 6.95449 81.5868 6.92753 81.72 6.92C82.2131 6.89816 82.7002 7.03484 83.11 7.31C83.6843 7.67544 84.1559 8.18141 84.48 8.78C84.5689 8.94074 84.6458 9.10787 84.71 9.28C84.7817 9.46177 84.8385 9.64905 84.88 9.84C84.9801 10.1908 85.0207 10.5558 85 10.92C84.9567 11.3306 84.8086 11.7231 84.57 12.06C84.321 12.3809 83.967 12.6039 83.57 12.69C83.1966 12.7435 82.8159 12.709 82.4582 12.5892C82.1006 12.4694 81.7758 12.2676 81.51 12ZM64.51 44.94C64.51 43.69 64.34 41.94 64.32 39.75C64.32 38.68 64.32 37.51 64.26 36.28C64.2 35.05 64.2 33.75 64.26 32.41L64.33 24C64.33 22.57 64.41 21.14 64.45 19.73C64.4413 19.0101 64.5185 18.2916 64.68 17.59C64.83 16.92 64.99 16.26 65.14 15.59C65.29 14.92 65.22 14.31 65.28 13.65C65.34 12.99 65.36 12.38 65.39 11.76C65.4184 10.6012 65.5219 9.44542 65.7 8.3C65.9545 6.55784 66.5491 4.88273 67.45 3.37C67.7072 2.94572 67.9911 2.53823 68.3 2.15C68.4058 2.01045 68.5193 1.87691 68.64 1.75C68.2569 2.28239 67.9223 2.84798 67.64 3.44C66.8658 4.98492 66.3844 6.65981 66.22 8.38C66.072 9.51732 65.9986 10.6631 66 11.81C66 12.42 66 13.06 66 13.7C66.0057 14.3683 65.9689 15.0363 65.89 15.7C65.75 16.36 65.61 17.03 65.46 17.7C65.3174 18.3567 65.2536 19.0282 65.27 19.7C65.27 21.11 65.27 22.54 65.21 23.98C65.09 29.7 64.96 35.42 64.87 39.71C64.87 41.86 64.78 43.65 64.75 44.9C64.72 46.15 64.69 46.9 64.69 46.9L64.51 44.94ZM11.63 74.83C15.49 71.48 19.78 69.27 23.97 69.3L24.07 74.02C18.4991 76.961 14.2217 81.8694 12.07 87.79C9.69715 93.8979 8.95281 100.518 9.91 107L9.76 106.49C9.58 105.67 9.34 104.84 9.2 103.97L9 102.68C8.93 102.24 8.89 101.8 8.83 101.35C8.69 100.46 8.64 99.56 8.59 98.68C8.54 97.8 8.59 96.92 8.59 96.07C8.59796 95.2546 8.64803 94.4402 8.74 93.63C8.74 93.24 8.79 92.86 8.84 92.49C8.89 92.12 8.95 91.78 9.01 91.49C9.13 90.81 9.2 90.19 9.33 89.64C9.46 89.09 9.59 88.64 9.68 88.23C9.88 87.44 9.99 86.99 9.99 86.99L9.49 88.17L8.92 89.51C8.7 90.04 8.53 90.65 8.3 91.32L7.95 92.32C7.85 92.69 7.76 93.07 7.66 93.46C7.48 94.24 7.24 95.06 7.12 95.93C7 96.8 6.79 97.7 6.73 98.63C6.67 99.56 6.54 100.49 6.52 101.44V102.52C6.43334 102.16 6.35334 101.79 6.28 101.41C6.1 100.62 6 99.81 5.89 99C5.78 98.19 5.75 97.36 5.68 96.55C5.61 95.74 5.68 94.93 5.68 94.15C5.68 93.37 5.78 92.61 5.83 91.89C5.87863 91.2184 5.9688 90.5505 6.1 89.89C6.21 89.26 6.26 88.68 6.4 88.17C6.54 87.66 6.64 87.17 6.73 86.86L7.02 85.71L6.48 86.77L5.73 88C5.48 88.46 5.29 89 5.03 89.64C4.74414 90.2927 4.49378 90.9603 4.28 91.64C4.06 92.36 3.78 93.11 3.59 93.92C3.4 94.73 3.17 95.52 3 96.38C2.83 97.24 2.71 98.12 2.66 99C2.6 99.58 2.55 100.16 2.52 100.73C1.66 93.06 4.43 81.08 11.63 74.83ZM95.63 131.61C94.0436 133.555 92.1402 135.219 90 136.53C88.2729 137.591 86.385 138.364 84.41 138.82C83.2641 139.082 82.095 139.229 80.92 139.26H80C79.62 139.26 79.38 139.2 79.06 139.17C78.4299 139.135 77.8041 139.045 77.19 138.9C74.5103 138.353 71.9962 137.185 69.85 135.49C67.605 133.715 65.7383 131.508 64.36 129C62.9795 126.477 62.0011 123.754 61.46 120.93C60.9286 118.133 60.7839 115.276 61.03 112.44C61.03 112.26 61.03 112.12 61.03 111.89L61.1 111.38L61.24 110.38L61.4 109.38L61.63 108.38C61.9251 107.047 62.2957 105.731 62.74 104.44C63.642 102.005 64.8411 99.6911 66.31 97.55C67.6596 95.6255 69.2605 93.8902 71.07 92.39C72.6239 91.1206 74.3472 90.0738 76.19 89.28C77.02 88.94 77.83 88.68 78.57 88.45C79.31 88.22 80.02 88.1 80.66 88.01L82.37 87.85C82.7897 87.8286 83.2103 87.8286 83.63 87.85C83.29 87.85 82.87 87.85 82.38 87.93L80.72 88.21C80.1 88.35 79.44 88.57 78.72 88.77C78 88.97 77.26 89.35 76.48 89.72C75.6617 90.1348 74.8731 90.606 74.12 91.13C73.74 91.42 73.31 91.66 72.92 91.99L71.74 92.99C70.086 94.5095 68.6281 96.2295 67.4 98.11C66.0808 100.205 65.0039 102.442 64.19 104.78C63.7852 106.013 63.4513 107.269 63.19 108.54L62.99 109.54L62.86 110.54L62.73 111.54L62.66 112.05C62.66 112.16 62.66 112.37 62.66 112.53C62.4385 115.225 62.5933 117.938 63.12 120.59C63.6061 123.255 64.5106 125.827 65.8 128.21C67.0607 130.542 68.7582 132.609 70.8 134.3C72.7242 135.886 74.9795 137.021 77.4 137.62C77.9861 137.779 78.5851 137.886 79.19 137.94L80.05 138.05H80.91C82.0092 138.071 83.1079 137.984 84.19 137.79C86.098 137.433 87.9418 136.793 89.66 135.89C90.9824 135.19 92.229 134.356 93.38 133.4C94.38 132.59 95.04 131.92 95.51 131.4L96.21 130.66L95.63 131.61ZM180.9 111C180.289 111.927 179.621 112.816 178.9 113.66C177.751 115.005 176.445 116.207 175.01 117.24C173.088 118.647 170.911 119.666 168.6 120.24C167.243 120.577 165.848 120.738 164.45 120.72H164.17H163.83L163.32 120.66L162.32 120.55C162.15 120.55 161.98 120.55 161.79 120.48L161.22 120.34L160 120C156.918 119.05 154.13 117.329 151.9 115C149.596 112.629 147.74 109.861 146.42 106.83C145.066 103.781 144.134 100.561 143.65 97.26C143.205 93.9895 143.107 90.681 143.36 87.39V87.09V86.89V86.74L143.43 86.16L143.57 84.99L143.73 83.83L143.98 82.63C144.15 81.84 144.28 81.04 144.49 80.28C144.59 79.95 144.68 79.62 144.77 79.28C145.58 79.03 146.71 78.66 148.1 78.16C148.04 78.35 147.97 78.54 147.92 78.74C147.74 79.45 147.57 80.16 147.39 80.88C147.21 81.6 147.13 82.32 147 83.05L146.81 84.14L146.69 85.31L146.56 86.47L146.5 87.06V87.21V87.59C146.302 90.6648 146.429 93.7519 146.88 96.8C147.282 99.8451 148.103 102.82 149.32 105.64C150.449 108.382 152.031 110.914 154 113.13C155.844 115.188 158.151 116.778 160.73 117.77L161.62 118.06L162.07 118.22C162.22 118.22 162.41 118.28 162.58 118.31L163.58 118.48L164.09 118.57H164.22H164.28H164.49C165.711 118.677 166.941 118.626 168.15 118.42C170.3 118.045 172.365 117.29 174.25 116.19C175.72 115.33 177.1 114.325 178.37 113.19C179.19 112.451 179.971 111.67 180.71 110.85L181.49 109.97L180.9 111ZM182.75 87.9C181.85 98.9 174.61 107.37 166.4 107.32C166.73 107.32 167.07 107.19 167.4 107.13C168.738 106.82 170.02 106.304 171.2 105.6C172.222 104.976 173.16 104.223 173.99 103.36C174.648 102.639 175.235 101.855 175.74 101.02C176.129 100.383 176.464 99.7138 176.74 99.02C176.925 98.5949 177.078 98.1571 177.2 97.71L177.34 97.24L177.02 97.62C176.81 97.87 176.53 98.25 176.14 98.69C175.111 99.9103 173.955 101.017 172.69 101.99C171.868 102.6 170.987 103.126 170.06 103.56C169.034 104.03 167.952 104.366 166.84 104.56C166.26 104.65 165.66 104.73 165.06 104.77H164.17C163.837 104.794 163.503 104.794 163.17 104.77C161.989 104.66 160.841 104.32 159.79 103.77C159.511 103.622 159.24 103.459 158.98 103.28L158.82 103.11C158.7 102.98 158.59 102.84 158.48 102.71C158.37 102.58 158.22 102.41 158.1 102.24C157.98 102.07 157.85 101.9 157.72 101.72C157.59 101.54 157.51 101.44 157.41 101.29C157.31 101.14 157.2 100.94 157.1 100.77C157 100.6 156.87 100.41 156.77 100.22C156.67 100.03 156.51 99.72 156.38 99.46C156.25 99.2 156.25 99.23 156.2 99.11C156.15 98.99 155.98 98.6 155.87 98.35C155.76 98.1 155.73 98.04 155.67 97.87C155.61 97.7 155.55 97.54 155.49 97.38C155.43 97.22 155.29 96.85 155.2 96.57C155.11 96.29 155.09 96.19 155.03 96C154.97 95.81 154.88 95.51 154.81 95.26L154.63 94.47C154.63 94.25 154.53 94.04 154.49 93.82C154.45 93.6 154.44 93.51 154.42 93.36C154.36 93.03 154.3 92.7 154.25 92.36L154.19 91.73C154.19 91.45 154.12 91.17 154.1 90.88C154.08 90.59 154.1 90.34 154.1 90.08C154.1 89.82 154.1 89.59 154.1 89.34C154.1 89.09 154.1 88.88 154.1 88.66C154.1 88.44 154.1 88.06 154.1 87.76C154.1 87.46 154.1 87.22 154.1 86.95C154.1 86.68 154.1 86.44 154.15 86.19V85.95C154.15 85.77 154.15 85.57 154.21 85.37C154.27 85.17 154.21 85.17 154.21 85.07V85.01L154.27 84.63C154.35 84.14 154.45 83.63 154.55 83.07C154.996 80.9537 155.736 78.9105 156.75 77C157.744 75.1157 159.064 73.4227 160.65 72C162.187 70.6178 164.026 69.6144 166.02 69.07C166.918 68.8305 167.841 68.6996 168.77 68.68C168.863 68.675 168.957 68.675 169.05 68.68C169.959 68.7322 170.847 68.9705 171.66 69.38C173.198 70.2277 174.382 71.5966 175 73.24C175.554 74.7063 175.91 76.2398 176.06 77.8C176.188 79.0357 176.245 80.2778 176.23 81.52C176.23 82.52 176.23 83.38 176.16 83.94L176.11 84.8C176.11 84.8 176.19 84.51 176.33 83.96C176.47 83.41 176.65 82.61 176.84 81.57C177.068 80.311 177.212 79.0382 177.27 77.76C177.372 76.0587 177.21 74.3519 176.79 72.7C176.79 72.7 176.79 72.61 176.79 72.56C177.489 73.6223 178.028 74.7813 178.39 76C178.737 77.1834 178.981 78.3946 179.12 79.62C179.25 80.62 179.3 81.46 179.33 82.01V82.87C179.33 82.87 179.33 82.57 179.46 82.02C179.59 81.47 179.64 80.65 179.7 79.6C179.768 78.3214 179.717 77.0394 179.55 75.77C179.358 74.2622 178.894 72.8019 178.18 71.46C181.47 75.47 183.28 81.4 182.75 87.89V87.9Z" fill="white"/>
</svg>
