<svg width="310" height="116" viewBox="0 0 310 116" fill="none" xmlns="http://www.w3.org/2000/svg">
<g clip-path="url(#clip0_110_242)">
<path d="M307.89 63.4C307.01 61.77 304.26 57.4 304.26 57.4C307.76 38.4 299.76 34.77 296.89 29.77C294.02 24.77 280.63 14.9 283.89 12C287.15 9.09999 287 8.39999 287 8.39999C277.465 6.59928 267.836 5.33065 258.16 4.59999C256.5 3.24999 252.62 0.459988 248.83 0.169988C243.83 -0.210012 171.5 0.169988 171.5 0.169988C171.5 0.169988 162.18 1.16999 160 4.21999C144.5 5.21999 132.83 6.75999 128.5 8.39999C114 13.9 77.5 33.9 77.5 33.9C16.67 36.82 11.5 50.15 11.5 50.15C7.95635 54.1776 5.38978 58.9685 3.99999 64.15C3.99999 64.15 -2.00001 67.32 0.679989 76.65C2.53517 82.6561 5.59779 88.2198 9.67999 93C12 94.15 13 99.48 13 99.48C16.5 101.82 27.33 100.32 27.33 100.32C27.33 100.32 21.33 61.98 54.83 61.32C88.33 60.66 84.76 94.65 84.76 94.65H216.68C216.68 94.65 213.01 60.65 246.51 61.48C280.01 62.31 274.63 94.65 274.63 94.65C274.63 94.65 301.89 89.27 306.51 85.53C311.13 81.79 308.76 65 307.89 63.4ZM14.47 50.65L31.84 50.15L31.14 51.48L22.14 51.98L17.39 56.9C17.39 56.9 11.21 57.24 7.29999 60.9C7.29999 60.9 10.84 52.82 14.47 50.65ZM30.26 52.65L21.26 58.4L19.63 58.61L23.8 52.9L30.26 52.65ZM13.51 87.15C12.26 87.46 8.25999 86.77 8.25999 86.77C7.76002 86.7023 7.2871 86.5026 6.88989 86.1916C6.49268 85.8805 6.18552 85.4692 5.99999 85C5.30999 83.31 2.69999 77.69 2.69999 77.69C2.69999 77.69 1.87999 76.13 3.19999 76.13H7.99999C8.74547 76.2766 9.44354 76.604 10.0329 77.0835C10.6222 77.563 11.0848 78.1799 11.38 78.88C12.56 81.38 14.2 84.44 14.2 84.44C14.2 84.44 14.76 86.84 13.51 87.15ZM36.32 51.21L19.63 61.9C16.3 60.56 6.62999 63.08 6.14999 63.2C8.37999 61.2 19.07 60.15 19.07 60.15C19.07 60.15 32.82 52.46 33.76 51C34.7 49.54 32.89 49.5 32.89 49.5L12.76 50C12.76 50 24.46 48.31 31.63 48.5C38.8 48.69 36.32 51.21 36.32 51.21ZM303.18 47.32V49.32H295.51L292.84 47.32H303.18ZM302.51 43.4L288.43 43.82L285.68 41.48H302.51V43.4ZM298.84 37.82L279.76 38.48C279.76 38.48 278.59 39.15 280.09 39.98C281.59 40.81 294.09 50.23 294.09 50.23L303.18 51.75L294 52.4L277.68 40.07C277.68 40.07 275.68 38.07 278.43 37.23C281.18 36.39 298.84 37.82 298.84 37.82ZM283 9.31999C283 9.31999 280.83 11.98 281.33 13.65C281.83 15.32 294.04 28.46 294.79 29.28L275 11.15L283 9.31999ZM173.51 1.67999H247.18C247.18 1.67999 251.35 2.53999 252.48 4.15999C223.135 2.3045 193.704 2.23103 164.35 3.93999C167.205 2.5355 170.329 1.76457 173.51 1.67999ZM168.51 7.67999C178.78 6.81999 236.07 8.52999 254.38 9.58999L256.96 9.75999H257.35H257.78H258C258.48 9.75999 258.88 9.82999 259.19 9.86999H259.51H259.6L259.89 9.92999C260.056 9.98113 260.22 10.0412 260.38 10.11L260.84 10.33L261.3 10.57L261.46 10.66C262.18 11.07 263.03 11.66 263.96 12.28C264.47 12.66 265.03 13.06 265.6 13.5C270.3 17.08 275.85 22.27 275.76 24.16C275.63 27.04 268.39 32.42 268.39 32.42L171.39 37.87L93.89 39.1L101.82 31.73C100.21 37.23 104.07 36.73 105.63 36.54C107.19 36.35 110.07 36.1 110.26 32.42C110.45 28.74 108.26 27.54 108.26 27.54C135.76 6.89999 156.51 8.64999 168.51 7.64999V7.67999ZM234.3 36.19C234.71 36.46 238.22 39.03 237.51 43.27C236.8 47.51 233.71 55.99 233.51 56.5L235.38 48.77L236.38 43.77C236.698 42.4335 236.674 41.0385 236.31 39.7138C235.947 38.389 235.255 37.1772 234.3 36.19ZM231.3 47.19C231.3 47.461 231.197 47.7219 231.011 47.9191C230.825 48.1162 230.571 48.2346 230.3 48.25H217.82C217.539 48.25 217.269 48.1383 217.07 47.9395C216.872 47.7407 216.76 47.4711 216.76 47.19C216.76 46.9089 216.872 46.6392 217.07 46.4405C217.269 46.2417 217.539 46.13 217.82 46.13H230.21C230.492 46.1352 230.761 46.2517 230.957 46.4539C231.154 46.6562 231.263 46.9279 231.26 47.21L231.3 47.19ZM165.17 84.46C160.288 70.089 160.642 54.4552 166.17 40.32C166.17 40.32 162 70.12 165.17 84.46ZM159.57 50.09C159.57 50.4029 159.446 50.7031 159.224 50.9244C159.003 51.1457 158.703 51.27 158.39 51.27H145C144.835 51.2851 144.669 51.2658 144.512 51.2131C144.355 51.1604 144.211 51.0756 144.089 50.9641C143.967 50.8526 143.869 50.7168 143.802 50.5655C143.736 50.4141 143.701 50.2504 143.701 50.085C143.701 49.9195 143.736 49.7559 143.802 49.6045C143.869 49.4531 143.967 49.3174 144.089 49.2058C144.211 49.0943 144.355 49.0095 144.512 48.9569C144.669 48.9042 144.835 48.8848 145 48.9H158.38C158.537 48.8987 158.692 48.9285 158.837 48.9879C158.982 49.0472 159.114 49.1348 159.224 49.2456C159.335 49.3563 159.423 49.488 159.482 49.633C159.541 49.778 159.571 49.9333 159.57 50.09ZM77.63 36.15C77.63 36.15 118.63 14.03 125.39 11.15H128.63L88.39 34.65C88.39 34.65 81 36.27 77.63 36.15ZM273.51 71.9C273.51 71.9 262.51 59.48 247.01 58.82C231.51 58.16 219.84 65.48 214.01 86.32L213.68 89.15H91.34C91.34 89.15 76.69 72.33 92.17 41.15C91.8 42.06 83.03 64.08 92.17 85.62H209.34C209.34 85.62 215 57.4 244.51 56.9C244.51 56.9 261.26 58.15 266.76 63.4C266.76 63.4 285.34 61.48 292.69 56.94C289.039 59.9447 285.131 62.6217 281.01 64.94C274.61 68.37 297.27 67.83 305.21 65.94C299.8 67.54 283.42 72.11 273.51 71.9Z" fill="white"/>
<path d="M275.39 23.26C274.692 22.0834 273.841 21.0041 272.86 20.05C270.948 18.0837 268.91 16.2432 266.76 14.54C265.68 13.68 264.59 12.85 263.46 12.06C262.89 11.67 262.32 11.29 261.73 10.94C261.59 10.85 261.43 10.77 261.3 10.68L260.84 10.44L260.38 10.22C260.22 10.1512 260.056 10.0911 259.89 10.04L259.6 9.99999H259.51H259.19C258.88 9.99999 258.48 9.92999 258 9.88999L258.68 9.96999C255.85 9.68999 253 9.60999 250.17 9.44999L240.4 8.99999C233.9 8.76665 227.397 8.55999 220.89 8.37999C207.89 7.99999 194.89 7.80665 181.89 7.79999C178.62 7.79999 175.37 7.79999 172.14 7.93999C168.91 8.07999 165.65 8.36999 162.4 8.52999C159.15 8.68999 155.93 8.94999 152.72 9.38999C151.11 9.55999 149.52 9.88999 147.93 10.14C146.34 10.39 144.76 10.74 143.2 11.14L140.85 11.75C140.07 11.96 139.31 12.22 138.54 12.46C137.77 12.7 137.01 12.93 136.24 13.2L133.97 14.05C132.45 14.58 130.97 15.25 129.51 15.9C128.05 16.55 126.58 17.27 125.14 17.99C123.7 18.71 122.29 19.5 120.9 20.31L118.81 21.52L116.81 22.83C114.36 24.33 112.05 26.03 109.72 27.7C109.8 27.79 109.87 27.89 109.94 27.98C110.098 28.1807 110.239 28.3949 110.36 28.62C110.495 28.8323 110.602 29.0608 110.68 29.3C110.77 29.53 110.87 29.77 110.94 30L111.08 30.72C111.181 31.1896 111.218 31.6705 111.19 32.15V32.51C111.19 32.72 111.19 32.75 111.19 32.88C111.168 33.1153 111.131 33.3491 111.08 33.58C110.99 34.1019 110.814 34.6054 110.56 35.07C110.288 35.5466 109.929 35.9674 109.5 36.31C109.081 36.6321 108.616 36.8884 108.12 37.07C107.663 37.2323 107.19 37.3495 106.71 37.42C106.25 37.5 105.83 37.54 105.4 37.6C104.389 37.7579 103.355 37.6476 102.4 37.28C101.81 37.041 101.317 36.6115 101 36.06C100.726 35.5582 100.569 35.001 100.54 34.43V34.35L96.4 38.19C102.84 38.0633 109.277 37.9667 115.71 37.9L137.55 37.61L159.38 37.34L170.28 37.25C173.86 37.16 177.55 36.92 181.17 36.77L224.77 34.65L246.59 33.58L268.35 32.43C269.43 31.62 270.51 30.75 271.51 29.84C272.535 28.9354 273.488 27.9524 274.36 26.9C274.799 26.3729 275.169 25.7914 275.46 25.17C275.6 24.8544 275.678 24.515 275.69 24.17C275.662 23.8474 275.56 23.5358 275.39 23.26ZM162.51 14.4C161.89 18.03 159.09 36.57 159.09 36.57L115.22 37.27C115.22 37.27 115.39 35.77 111.89 32.77C111.89 32.77 111.76 28.15 110.76 28.15C110.76 28.15 133.76 9.76999 162.51 11.15C162.51 11.15 163.13 10.77 162.51 14.4ZM215.26 33.4L171.39 36.16L173.89 9.99999H214.51C214.51 9.99999 220.13 17.87 220.13 21.62C220.13 25.37 215.26 33.4 215.26 33.4ZM248.93 28.4L238.84 28.82L230.43 13.23L245.26 13.82L253.93 24.07L248.93 28.4Z" fill="white"/>
<path d="M261.3 10.67L260.84 10.43L261.3 10.68L261.46 10.77L261.3 10.67ZM254.38 9.56H254.09H254.55H254.38Z" fill="white"/>
<path d="M266.78 14.5L266.51 14.29C266.78 14.52 267.07 14.75 267.36 14.98C267.17 14.81 267 14.65 266.78 14.5Z" fill="white"/>
<path d="M266.07 14C265.34 13.44 264.63 12.91 263.96 12.43C264.67 12.88 265.38 13.41 266.07 14Z" fill="white"/>
<path d="M292.69 56.94C293.92 55.94 294.69 55.28 294.82 55.17C294.215 55.8758 293.495 56.4742 292.69 56.94Z" fill="white"/>
<path d="M9.18001 84.73C8.30001 84.94 7.18001 83.59 6.73001 81.73C6.28001 79.87 6.61001 78.12 7.51001 77.91C8.41001 77.7 9.51001 79.05 9.96001 80.91C10.41 82.77 10.07 84.51 9.18001 84.73Z" fill="white"/>
<path d="M69.16 77.08C69.16 78.66 67.95 82.72 57.62 88.44C57.8597 88.8259 57.9973 89.2663 58.02 89.72C69.54 88.75 73 91.39 74 92.79C74.4205 89.9792 74.2077 87.11 73.3772 84.392C72.5468 81.674 71.1196 79.1758 69.2 77.08H69.16ZM52.49 88.89C40.92 83.7 40.1 79.55 40.16 78.29C37.5569 81.6182 36.1481 85.7248 36.16 89.95C36.1575 91.5563 36.3625 93.1562 36.77 94.71C37.64 93.23 40.77 90.31 52.32 90.26C52.32 90.16 52.32 90.05 52.32 89.95C52.2996 89.5885 52.3576 89.2269 52.49 88.89ZM54.27 92.67C53.8369 92.5457 53.4417 92.3155 53.12 92C44.58 100 40.25 99.89 38.65 99.4C40.0611 101.863 42.0046 103.98 44.3385 105.596C46.6724 107.212 49.3378 108.286 52.14 108.74C51.17 107.41 49.73 103.42 54.27 92.67ZM56.27 92.55C56.2766 92.5511 56.2834 92.5511 56.29 92.55H56.27ZM55.16 70.94C52.2098 70.9377 49.2996 71.6225 46.66 72.94C48.3 73.5 51.8 76.01 54.26 87.22C54.5483 87.1152 54.8533 87.0644 55.16 87.07C55.3196 87.0543 55.4804 87.0543 55.64 87.07C58.3 74.61 62.22 73 63.43 72.83C60.8536 71.5775 58.0247 70.931 55.16 70.94ZM57.36 91.8C57.0737 92.1431 56.7106 92.4137 56.3 92.59C61.78 102.33 61.07 106.59 60.3 108.26C63.0203 107.492 65.536 106.13 67.665 104.271C69.794 102.411 71.483 100.102 72.61 97.51C71.32 98.19 67.19 99.08 57.36 91.8ZM69.16 77.08C69.16 78.66 67.95 82.72 57.62 88.44C57.8597 88.8259 57.9973 89.2663 58.02 89.72C69.54 88.75 73 91.39 74 92.79C74.4205 89.9792 74.2077 87.11 73.3772 84.392C72.5468 81.674 71.1196 79.1758 69.2 77.08H69.16ZM57.36 91.8C57.0737 92.1431 56.7106 92.4137 56.3 92.59C61.78 102.33 61.07 106.59 60.3 108.26C63.0203 107.492 65.536 106.13 67.665 104.271C69.794 102.411 71.483 100.102 72.61 97.51C71.32 98.19 67.19 99.08 57.36 91.8ZM55.16 70.94C52.2098 70.9377 49.2996 71.6225 46.66 72.94C48.3 73.5 51.8 76.01 54.26 87.22C54.5483 87.1152 54.8533 87.0644 55.16 87.07C55.3196 87.0543 55.4804 87.0543 55.64 87.07C58.3 74.61 62.22 73 63.43 72.83C60.8536 71.5775 58.0247 70.931 55.16 70.94ZM54.29 92.67C53.8498 92.5488 53.4473 92.3183 53.12 92C44.58 100 40.25 99.89 38.65 99.4C40.0611 101.863 42.0046 103.98 44.3385 105.596C46.6724 107.212 49.3378 108.286 52.14 108.74C51.17 107.41 49.73 103.42 54.27 92.67H54.29ZM52.51 88.89C40.92 83.7 40.1 79.55 40.16 78.29C37.5569 81.6182 36.1481 85.7248 36.16 89.95C36.1575 91.5563 36.3625 93.1562 36.77 94.71C37.64 93.23 40.77 90.31 52.32 90.26C52.32 90.16 52.32 90.05 52.32 89.95C52.2996 89.5885 52.3576 89.2269 52.49 88.89H52.51ZM69.16 77.08C69.16 78.66 67.95 82.72 57.62 88.44C57.8597 88.8259 57.9973 89.2663 58.02 89.72C69.54 88.75 73 91.39 74 92.79C74.4205 89.9792 74.2077 87.11 73.3772 84.392C72.5468 81.674 71.1196 79.1758 69.2 77.08H69.16ZM52.49 88.89C40.92 83.7 40.1 79.55 40.16 78.29C37.5569 81.6182 36.1481 85.7248 36.16 89.95C36.1575 91.5563 36.3625 93.1562 36.77 94.71C37.64 93.23 40.77 90.31 52.32 90.26C52.32 90.16 52.32 90.05 52.32 89.95C52.2996 89.5885 52.3576 89.2269 52.49 88.89ZM54.27 92.67C53.8369 92.5457 53.4417 92.3155 53.12 92C44.58 100 40.25 99.89 38.65 99.4C40.0611 101.863 42.0046 103.98 44.3385 105.596C46.6724 107.212 49.3378 108.286 52.14 108.74C51.17 107.41 49.73 103.42 54.27 92.67ZM56.27 92.55C56.2766 92.5511 56.2834 92.5511 56.29 92.55H56.27ZM55.16 70.94C52.2098 70.9377 49.2996 71.6225 46.66 72.94C48.3 73.5 51.8 76.01 54.26 87.22C54.5483 87.1152 54.8533 87.0644 55.16 87.07C55.3196 87.0543 55.4804 87.0543 55.64 87.07C58.3 74.61 62.22 73 63.43 72.83C60.8536 71.5775 58.0247 70.931 55.16 70.94ZM57.36 91.8C57.0737 92.1431 56.7106 92.4137 56.3 92.59C61.78 102.33 61.07 106.59 60.3 108.26C63.0203 107.492 65.536 106.13 67.665 104.271C69.794 102.411 71.483 100.102 72.61 97.51C71.32 98.19 67.19 99.08 57.36 91.8ZM69.16 77.08C69.16 78.66 67.95 82.72 57.62 88.44C57.8597 88.8259 57.9973 89.2663 58.02 89.72C69.54 88.75 73 91.39 74 92.79C74.4205 89.9792 74.2077 87.11 73.3772 84.392C72.5468 81.674 71.1196 79.1758 69.2 77.08H69.16ZM57.36 91.8C57.0737 92.1431 56.7106 92.4137 56.3 92.59C61.78 102.33 61.07 106.59 60.3 108.26C63.0203 107.492 65.536 106.13 67.665 104.271C69.794 102.411 71.483 100.102 72.61 97.51C71.32 98.19 67.19 99.08 57.36 91.8ZM55.16 70.94C52.2098 70.9377 49.2996 71.6225 46.66 72.94C48.3 73.5 51.8 76.01 54.26 87.22C54.5483 87.1152 54.8533 87.0644 55.16 87.07C55.3196 87.0543 55.4804 87.0543 55.64 87.07C58.3 74.61 62.22 73 63.43 72.83C60.8536 71.5775 58.0247 70.931 55.16 70.94ZM54.29 92.67C53.8498 92.5488 53.4473 92.3183 53.12 92C44.58 100 40.25 99.89 38.65 99.4C40.0611 101.863 42.0046 103.98 44.3385 105.596C46.6724 107.212 49.3378 108.286 52.14 108.74C51.17 107.41 49.73 103.42 54.27 92.67H54.29ZM52.51 88.89C40.92 83.7 40.1 79.55 40.16 78.29C37.5569 81.6182 36.1481 85.7248 36.16 89.95C36.1575 91.5563 36.3625 93.1562 36.77 94.71C37.64 93.23 40.77 90.31 52.32 90.26C52.32 90.16 52.32 90.05 52.32 89.95C52.2996 89.5885 52.3576 89.2269 52.49 88.89H52.51ZM69.16 77.08C69.16 78.66 67.95 82.72 57.62 88.44C57.8597 88.8259 57.9973 89.2663 58.02 89.72C69.54 88.75 73 91.39 74 92.79C74.4205 89.9792 74.2077 87.11 73.3772 84.392C72.5468 81.674 71.1196 79.1758 69.2 77.08H69.16ZM52.49 88.89C40.92 83.7 40.1 79.55 40.16 78.29C37.5569 81.6182 36.1481 85.7248 36.16 89.95C36.1575 91.5563 36.3625 93.1562 36.77 94.71C37.64 93.23 40.77 90.31 52.32 90.26C52.32 90.16 52.32 90.05 52.32 89.95C52.2996 89.5885 52.3576 89.2269 52.49 88.89ZM54.27 92.67C53.8369 92.5457 53.4417 92.3155 53.12 92C44.58 100 40.25 99.89 38.65 99.4C40.0611 101.863 42.0046 103.98 44.3385 105.596C46.6724 107.212 49.3378 108.286 52.14 108.74C51.17 107.41 49.73 103.42 54.27 92.67ZM56.27 92.55C56.2766 92.5511 56.2834 92.5511 56.29 92.55H56.27ZM55.16 70.94C52.2098 70.9377 49.2996 71.6225 46.66 72.94C48.3 73.5 51.8 76.01 54.26 87.22C54.5483 87.1152 54.8533 87.0644 55.16 87.07C55.3196 87.0543 55.4804 87.0543 55.64 87.07C58.3 74.61 62.22 73 63.43 72.83C60.8536 71.5775 58.0247 70.931 55.16 70.94ZM57.36 91.8C57.0737 92.1431 56.7106 92.4137 56.3 92.59C61.78 102.33 61.07 106.59 60.3 108.26C63.0203 107.492 65.536 106.13 67.665 104.271C69.794 102.411 71.483 100.102 72.61 97.51C71.32 98.19 67.19 99.08 57.36 91.8ZM69.16 77.08C69.16 78.66 67.95 82.72 57.62 88.44C57.8597 88.8259 57.9973 89.2663 58.02 89.72C69.54 88.75 73 91.39 74 92.79C74.4205 89.9792 74.2077 87.11 73.3772 84.392C72.5468 81.674 71.1196 79.1758 69.2 77.08H69.16ZM57.36 91.8C57.0737 92.1431 56.7106 92.4137 56.3 92.59C61.78 102.33 61.07 106.59 60.3 108.26C63.0203 107.492 65.536 106.13 67.665 104.271C69.794 102.411 71.483 100.102 72.61 97.51C71.32 98.19 67.19 99.08 57.36 91.8ZM55.16 70.94C52.2098 70.9377 49.2996 71.6225 46.66 72.94C48.3 73.5 51.8 76.01 54.26 87.22C54.5483 87.1152 54.8533 87.0644 55.16 87.07C55.3196 87.0543 55.4804 87.0543 55.64 87.07C58.3 74.61 62.22 73 63.43 72.83C60.8536 71.5775 58.0247 70.931 55.16 70.94ZM54.29 92.67C53.8498 92.5488 53.4473 92.3183 53.12 92C44.58 100 40.25 99.89 38.65 99.4C40.0611 101.863 42.0046 103.98 44.3385 105.596C46.6724 107.212 49.3378 108.286 52.14 108.74C51.17 107.41 49.73 103.42 54.27 92.67H54.29ZM52.51 88.89C40.92 83.7 40.1 79.55 40.16 78.29C37.5569 81.6182 36.1481 85.7248 36.16 89.95C36.1575 91.5563 36.3625 93.1562 36.77 94.71C37.64 93.23 40.77 90.31 52.32 90.26C52.32 90.16 52.32 90.05 52.32 89.95C52.2996 89.5885 52.3576 89.2269 52.49 88.89H52.51ZM69.16 77.08C69.16 78.66 67.95 82.72 57.62 88.44C57.8597 88.8259 57.9973 89.2663 58.02 89.72C69.54 88.75 73 91.39 74 92.79C74.4205 89.9792 74.2077 87.11 73.3772 84.392C72.5468 81.674 71.1196 79.1758 69.2 77.08H69.16ZM52.49 88.89C40.92 83.7 40.1 79.55 40.16 78.29C37.5569 81.6182 36.1481 85.7248 36.16 89.95C36.1575 91.5563 36.3625 93.1562 36.77 94.71C37.64 93.23 40.77 90.31 52.32 90.26C52.32 90.16 52.32 90.05 52.32 89.95C52.2996 89.5885 52.3576 89.2269 52.49 88.89ZM54.27 92.67C53.8369 92.5457 53.4417 92.3155 53.12 92C44.58 100 40.25 99.89 38.65 99.4C40.0611 101.863 42.0046 103.98 44.3385 105.596C46.6724 107.212 49.3378 108.286 52.14 108.74C51.17 107.41 49.73 103.42 54.27 92.67ZM56.27 92.55C56.2766 92.5511 56.2834 92.5511 56.29 92.55H56.27ZM55.16 70.94C52.2098 70.9377 49.2996 71.6225 46.66 72.94C48.3 73.5 51.8 76.01 54.26 87.22C54.5483 87.1152 54.8533 87.0644 55.16 87.07C55.3196 87.0543 55.4804 87.0543 55.64 87.07C58.3 74.61 62.22 73 63.43 72.83C60.8536 71.5775 58.0247 70.931 55.16 70.94ZM57.36 91.8C57.0737 92.1431 56.7106 92.4137 56.3 92.59C61.78 102.33 61.07 106.59 60.3 108.26C63.0203 107.492 65.536 106.13 67.665 104.271C69.794 102.411 71.483 100.102 72.61 97.51C71.32 98.19 67.19 99.08 57.36 91.8ZM69.16 77.08C69.16 78.66 67.95 82.72 57.62 88.44C57.8597 88.8259 57.9973 89.2663 58.02 89.72C69.54 88.75 73 91.39 74 92.79C74.4205 89.9792 74.2077 87.11 73.3772 84.392C72.5468 81.674 71.1196 79.1758 69.2 77.08H69.16ZM57.36 91.8C57.0737 92.1431 56.7106 92.4137 56.3 92.59C61.78 102.33 61.07 106.59 60.3 108.26C63.0203 107.492 65.536 106.13 67.665 104.271C69.794 102.411 71.483 100.102 72.61 97.51C71.32 98.19 67.19 99.08 57.36 91.8ZM55.16 70.94C52.2098 70.9377 49.2996 71.6225 46.66 72.94C48.3 73.5 51.8 76.01 54.26 87.22C54.5483 87.1152 54.8533 87.0644 55.16 87.07C55.3196 87.0543 55.4804 87.0543 55.64 87.07C58.3 74.61 62.22 73 63.43 72.83C60.8536 71.5775 58.0247 70.931 55.16 70.94ZM54.29 92.67C53.8498 92.5488 53.4473 92.3183 53.12 92C44.58 100 40.25 99.89 38.65 99.4C40.0611 101.863 42.0046 103.98 44.3385 105.596C46.6724 107.212 49.3378 108.286 52.14 108.74C51.17 107.41 49.73 103.42 54.27 92.67H54.29ZM52.51 88.89C40.92 83.7 40.1 79.55 40.16 78.29C37.5569 81.6182 36.1481 85.7248 36.16 89.95C36.1575 91.5563 36.3625 93.1562 36.77 94.71C37.64 93.23 40.77 90.31 52.32 90.26C52.32 90.16 52.32 90.05 52.32 89.95C52.2996 89.5885 52.3576 89.2269 52.49 88.89H52.51ZM69.16 77.08C69.16 78.66 67.95 82.72 57.62 88.44C57.8597 88.8259 57.9973 89.2663 58.02 89.72C69.54 88.75 73 91.39 74 92.79C74.4205 89.9792 74.2077 87.11 73.3772 84.392C72.5468 81.674 71.1196 79.1758 69.2 77.08H69.16ZM52.49 88.89C40.92 83.7 40.1 79.55 40.16 78.29C37.5569 81.6182 36.1481 85.7248 36.16 89.95C36.1575 91.5563 36.3625 93.1562 36.77 94.71C37.64 93.23 40.77 90.31 52.32 90.26C52.32 90.16 52.32 90.05 52.32 89.95C52.2996 89.5885 52.3576 89.2269 52.49 88.89ZM54.27 92.67C53.8369 92.5457 53.4417 92.3155 53.12 92C44.58 100 40.25 99.89 38.65 99.4C40.0611 101.863 42.0046 103.98 44.3385 105.596C46.6724 107.212 49.3378 108.286 52.14 108.74C51.17 107.41 49.73 103.42 54.27 92.67ZM56.27 92.55C56.2766 92.5511 56.2834 92.5511 56.29 92.55H56.27ZM55.16 70.94C52.2098 70.9377 49.2996 71.6225 46.66 72.94C48.3 73.5 51.8 76.01 54.26 87.22C54.5483 87.1152 54.8533 87.0644 55.16 87.07C55.3196 87.0543 55.4804 87.0543 55.64 87.07C58.3 74.61 62.22 73 63.43 72.83C60.8536 71.5775 58.0247 70.931 55.16 70.94ZM57.36 91.8C57.0737 92.1431 56.7106 92.4137 56.3 92.59C61.78 102.33 61.07 106.59 60.3 108.26C63.0203 107.492 65.536 106.13 67.665 104.271C69.794 102.411 71.483 100.102 72.61 97.51C71.32 98.19 67.19 99.08 57.36 91.8ZM69.16 77.08C69.16 78.66 67.95 82.72 57.62 88.44C57.8597 88.8259 57.9973 89.2663 58.02 89.72C69.54 88.75 73 91.39 74 92.79C74.4205 89.9792 74.2077 87.11 73.3772 84.392C72.5468 81.674 71.1196 79.1758 69.2 77.08H69.16ZM57.36 91.8C57.0737 92.1431 56.7106 92.4137 56.3 92.59C61.78 102.33 61.07 106.59 60.3 108.26C63.0203 107.492 65.536 106.13 67.665 104.271C69.794 102.411 71.483 100.102 72.61 97.51C71.32 98.19 67.19 99.08 57.36 91.8ZM55.16 70.94C52.2098 70.9377 49.2996 71.6225 46.66 72.94C48.3 73.5 51.8 76.01 54.26 87.22C54.5483 87.1152 54.8533 87.0644 55.16 87.07C55.3196 87.0543 55.4804 87.0543 55.64 87.07C58.3 74.61 62.22 73 63.43 72.83C60.8536 71.5775 58.0247 70.931 55.16 70.94ZM54.29 92.67C53.8498 92.5488 53.4473 92.3183 53.12 92C44.58 100 40.25 99.89 38.65 99.4C40.0611 101.863 42.0046 103.98 44.3385 105.596C46.6724 107.212 49.3378 108.286 52.14 108.74C51.17 107.41 49.73 103.42 54.27 92.67H54.29ZM52.51 88.89C40.92 83.7 40.1 79.55 40.16 78.29C37.5569 81.6182 36.1481 85.7248 36.16 89.95C36.1575 91.5563 36.3625 93.1562 36.77 94.71C37.64 93.23 40.77 90.31 52.32 90.26C52.32 90.16 52.32 90.05 52.32 89.95C52.2996 89.5885 52.3576 89.2269 52.49 88.89H52.51ZM69.16 77.08C69.16 78.66 67.95 82.72 57.62 88.44C57.8597 88.8259 57.9973 89.2663 58.02 89.72C69.54 88.75 73 91.39 74 92.79C74.4205 89.9792 74.2077 87.11 73.3772 84.392C72.5468 81.674 71.1196 79.1758 69.2 77.08H69.16ZM52.49 88.89C40.92 83.7 40.1 79.55 40.16 78.29C37.5569 81.6182 36.1481 85.7248 36.16 89.95C36.1575 91.5563 36.3625 93.1562 36.77 94.71C37.64 93.23 40.77 90.31 52.32 90.26C52.32 90.16 52.32 90.05 52.32 89.95C52.2996 89.5885 52.3576 89.2269 52.49 88.89ZM54.27 92.67C53.8369 92.5457 53.4417 92.3155 53.12 92C44.58 100 40.25 99.89 38.65 99.4C40.0611 101.863 42.0046 103.98 44.3385 105.596C46.6724 107.212 49.3378 108.286 52.14 108.74C51.17 107.41 49.73 103.42 54.27 92.67ZM56.27 92.55C56.2766 92.5511 56.2834 92.5511 56.29 92.55H56.27ZM55.16 70.94C52.2098 70.9377 49.2996 71.6225 46.66 72.94C48.3 73.5 51.8 76.01 54.26 87.22C54.5483 87.1152 54.8533 87.0644 55.16 87.07C55.3196 87.0543 55.4804 87.0543 55.64 87.07C58.3 74.61 62.22 73 63.43 72.83C60.8536 71.5775 58.0247 70.931 55.16 70.94ZM57.36 91.8C57.0737 92.1431 56.7106 92.4137 56.3 92.59C61.78 102.33 61.07 106.59 60.3 108.26C63.0203 107.492 65.536 106.13 67.665 104.271C69.794 102.411 71.483 100.102 72.61 97.51C71.32 98.19 67.19 99.08 57.36 91.8ZM69.16 77.08C69.16 78.66 67.95 82.72 57.62 88.44C57.8597 88.8259 57.9973 89.2663 58.02 89.72C69.54 88.75 73 91.39 74 92.79C74.4205 89.9792 74.2077 87.11 73.3772 84.392C72.5468 81.674 71.1196 79.1758 69.2 77.08H69.16ZM57.36 91.8C57.0737 92.1431 56.7106 92.4137 56.3 92.59C61.78 102.33 61.07 106.59 60.3 108.26C63.0203 107.492 65.536 106.13 67.665 104.271C69.794 102.411 71.483 100.102 72.61 97.51C71.32 98.19 67.19 99.08 57.36 91.8ZM63.43 72.8C60.8116 71.5377 57.939 70.8913 55.0322 70.9103C52.1255 70.9294 49.2616 71.6134 46.66 72.91C48.3 73.47 51.8 75.98 54.26 87.19C54.5483 87.0852 54.8533 87.0344 55.16 87.04C55.3196 87.0243 55.4804 87.0243 55.64 87.04C58.3 74.61 62.22 73 63.43 72.83V72.8ZM53.12 92C44.58 100 40.25 99.89 38.65 99.4C40.0611 101.863 42.0046 103.98 44.3385 105.596C46.6724 107.212 49.3378 108.286 52.14 108.74C51.14 107.43 49.73 103.44 54.27 92.74C53.8297 92.5957 53.4338 92.3409 53.12 92ZM52.28 90C52.2722 89.6356 52.3439 89.2739 52.49 88.94C40.92 83.7 40.1 79.55 40.16 78.29C37.5569 81.6182 36.1481 85.7248 36.16 89.95C36.1575 91.5563 36.3625 93.1562 36.77 94.71C37.64 93.23 40.77 90.31 52.32 90.26C52.29 90.16 52.28 90.05 52.28 90ZM69.16 77.08C69.16 78.66 67.95 82.72 57.62 88.44C57.8597 88.8259 57.9973 89.2663 58.02 89.72C69.54 88.75 73 91.39 74 92.79C74.4205 89.9792 74.2077 87.11 73.3772 84.392C72.5468 81.674 71.1196 79.1758 69.2 77.08H69.16ZM55.16 65C50.2299 65 45.4104 66.4612 41.3103 69.199C37.2103 71.9368 34.0136 75.8284 32.1242 80.3821C30.2348 84.9358 29.7375 89.9473 30.6949 94.7835C31.6524 99.6198 34.0217 104.064 37.5037 107.554C40.9856 111.044 45.4238 113.424 50.2578 114.393C55.0917 115.363 60.1044 114.877 64.6626 112.999C69.2208 111.12 73.1201 107.933 75.8677 103.84C78.6154 99.7461 80.0881 94.9301 80.1 90C80.1092 86.7194 79.4708 83.4693 78.2215 80.4359C76.9721 77.4025 75.1364 74.6455 72.8194 72.323C70.5025 70.0005 67.7499 68.1581 64.7196 66.9015C61.6892 65.6448 58.4406 64.9987 55.16 65ZM55.16 110.09C51.1698 110.09 47.2693 108.906 43.9525 106.688C40.6357 104.469 38.0518 101.316 36.528 97.6286C35.0042 93.9408 34.6091 89.8837 35.3926 85.9712C36.1762 82.0586 38.1032 78.4666 40.9297 75.65C43.7561 72.8333 47.3548 70.9188 51.2701 70.1489C55.1853 69.3789 59.241 69.7882 62.9235 71.3248C66.606 72.8614 69.7497 75.4562 71.9565 78.7807C74.1633 82.1052 75.3339 86.0098 75.32 90C75.3041 95.3364 73.1731 100.449 69.3941 104.217C65.6151 107.984 60.4964 110.1 55.16 110.1V110.09ZM57.36 91.79C57.0737 92.1331 56.7106 92.4037 56.3 92.58C61.78 102.32 61.07 106.58 60.3 108.25C63.0193 107.483 65.5344 106.122 67.6633 104.265C69.7922 102.408 71.4818 100.1 72.61 97.51C71.32 98.19 67.19 99.08 57.36 91.8V91.79ZM63.43 72.79C60.8116 71.5277 57.939 70.8813 55.0322 70.9003C52.1255 70.9194 49.2616 71.6034 46.66 72.9C48.3 73.46 51.8 75.97 54.26 87.18C54.5483 87.0752 54.8533 87.0244 55.16 87.03C55.3196 87.0143 55.4804 87.0143 55.64 87.03C58.3 74.61 62.22 73 63.43 72.83V72.79ZM53.12 92C44.58 100 40.25 99.89 38.65 99.4C40.0611 101.863 42.0046 103.98 44.3385 105.596C46.6724 107.212 49.3378 108.286 52.14 108.74C51.14 107.43 49.73 103.44 54.27 92.74C53.8297 92.5957 53.4338 92.3409 53.12 92ZM52.28 90C52.2722 89.6356 52.3439 89.2739 52.49 88.94C40.92 83.7 40.1 79.55 40.16 78.29C37.5569 81.6182 36.1481 85.7248 36.16 89.95C36.1575 91.5563 36.3625 93.1562 36.77 94.71C37.64 93.23 40.77 90.31 52.32 90.26C52.29 90.16 52.28 90.05 52.28 90ZM69.16 77.08C69.16 78.66 67.95 82.72 57.62 88.44C57.8597 88.8259 57.9973 89.2663 58.02 89.72C69.54 88.75 73 91.39 74 92.79C74.4205 89.9792 74.2077 87.11 73.3772 84.392C72.5468 81.674 71.1196 79.1758 69.2 77.08H69.16ZM52.49 88.89C40.92 83.7 40.1 79.55 40.16 78.29C37.5569 81.6182 36.1481 85.7248 36.16 89.95C36.1575 91.5563 36.3625 93.1562 36.77 94.71C37.64 93.23 40.77 90.31 52.32 90.26C52.32 90.16 52.32 90.05 52.32 89.95C52.2996 89.5885 52.3576 89.2269 52.49 88.89ZM54.27 92.67C53.8369 92.5457 53.4417 92.3155 53.12 92C44.58 100 40.25 99.89 38.65 99.4C40.0611 101.863 42.0046 103.98 44.3385 105.596C46.6724 107.212 49.3378 108.286 52.14 108.74C51.17 107.41 49.73 103.42 54.27 92.67ZM56.27 92.55C56.2766 92.5511 56.2834 92.5511 56.29 92.55H56.27ZM55.16 70.94C52.2098 70.9377 49.2996 71.6225 46.66 72.94C48.3 73.5 51.8 76.01 54.26 87.22C54.5483 87.1152 54.8533 87.0644 55.16 87.07C55.3196 87.0543 55.4804 87.0543 55.64 87.07C58.3 74.61 62.22 73 63.43 72.83C60.8536 71.5775 58.0247 70.931 55.16 70.94ZM57.36 91.8C57.0737 92.1431 56.7106 92.4137 56.3 92.59C61.78 102.33 61.07 106.59 60.3 108.26C63.0203 107.492 65.536 106.13 67.665 104.271C69.794 102.411 71.483 100.102 72.61 97.51C71.32 98.19 67.19 99.08 57.36 91.8ZM69.16 77.08C69.16 78.66 67.95 82.72 57.62 88.44C57.8597 88.8259 57.9973 89.2663 58.02 89.72C69.54 88.75 73 91.39 74 92.79C74.4205 89.9792 74.2077 87.11 73.3772 84.392C72.5468 81.674 71.1196 79.1758 69.2 77.08H69.16ZM57.36 91.8C57.0737 92.1431 56.7106 92.4137 56.3 92.59C61.78 102.33 61.07 106.59 60.3 108.26C63.0203 107.492 65.536 106.13 67.665 104.271C69.794 102.411 71.483 100.102 72.61 97.51C71.32 98.19 67.19 99.08 57.36 91.8ZM55.16 70.94C52.2098 70.9377 49.2996 71.6225 46.66 72.94C48.3 73.5 51.8 76.01 54.26 87.22C54.5483 87.1152 54.8533 87.0644 55.16 87.07C55.3196 87.0543 55.4804 87.0543 55.64 87.07C58.3 74.61 62.22 73 63.43 72.83C60.8536 71.5775 58.0247 70.931 55.16 70.94ZM54.29 92.67C53.8498 92.5488 53.4473 92.3183 53.12 92C44.58 100 40.25 99.89 38.65 99.4C40.0611 101.863 42.0046 103.98 44.3385 105.596C46.6724 107.212 49.3378 108.286 52.14 108.74C51.17 107.41 49.73 103.42 54.27 92.67H54.29ZM52.51 88.89C40.92 83.7 40.1 79.55 40.16 78.29C37.5569 81.6182 36.1481 85.7248 36.16 89.95C36.1575 91.5563 36.3625 93.1562 36.77 94.71C37.64 93.23 40.77 90.31 52.32 90.26C52.32 90.16 52.32 90.05 52.32 89.95C52.2996 89.5885 52.3576 89.2269 52.49 88.89H52.51ZM69.16 77.08C69.16 78.66 67.95 82.72 57.62 88.44C57.8597 88.8259 57.9973 89.2663 58.02 89.72C69.54 88.75 73 91.39 74 92.79C74.4205 89.9792 74.2077 87.11 73.3772 84.392C72.5468 81.674 71.1196 79.1758 69.2 77.08H69.16ZM52.49 88.89C40.92 83.7 40.1 79.55 40.16 78.29C37.5569 81.6182 36.1481 85.7248 36.16 89.95C36.1575 91.5563 36.3625 93.1562 36.77 94.71C37.64 93.23 40.77 90.31 52.32 90.26C52.32 90.16 52.32 90.05 52.32 89.95C52.2996 89.5885 52.3576 89.2269 52.49 88.89ZM54.27 92.67C53.8369 92.5457 53.4417 92.3155 53.12 92C44.58 100 40.25 99.89 38.65 99.4C40.0611 101.863 42.0046 103.98 44.3385 105.596C46.6724 107.212 49.3378 108.286 52.14 108.74C51.17 107.41 49.73 103.42 54.27 92.67ZM56.27 92.55C56.2766 92.5511 56.2834 92.5511 56.29 92.55H56.27ZM55.16 70.94C52.2098 70.9377 49.2996 71.6225 46.66 72.94C48.3 73.5 51.8 76.01 54.26 87.22C54.5483 87.1152 54.8533 87.0644 55.16 87.07C55.3196 87.0543 55.4804 87.0543 55.64 87.07C58.3 74.61 62.22 73 63.43 72.83C60.8536 71.5775 58.0247 70.931 55.16 70.94ZM57.36 91.8C57.0737 92.1431 56.7106 92.4137 56.3 92.59C61.78 102.33 61.07 106.59 60.3 108.26C63.0203 107.492 65.536 106.13 67.665 104.271C69.794 102.411 71.483 100.102 72.61 97.51C71.32 98.19 67.19 99.08 57.36 91.8ZM69.16 77.08C69.16 78.66 67.95 82.72 57.62 88.44C57.8597 88.8259 57.9973 89.2663 58.02 89.72C69.54 88.75 73 91.39 74 92.79C74.4205 89.9792 74.2077 87.11 73.3772 84.392C72.5468 81.674 71.1196 79.1758 69.2 77.08H69.16ZM57.36 91.8C57.0737 92.1431 56.7106 92.4137 56.3 92.59C61.78 102.33 61.07 106.59 60.3 108.26C63.0203 107.492 65.536 106.13 67.665 104.271C69.794 102.411 71.483 100.102 72.61 97.51C71.32 98.19 67.19 99.08 57.36 91.8ZM55.16 70.94C52.2098 70.9377 49.2996 71.6225 46.66 72.94C48.3 73.5 51.8 76.01 54.26 87.22C54.5483 87.1152 54.8533 87.0644 55.16 87.07C55.3196 87.0543 55.4804 87.0543 55.64 87.07C58.3 74.61 62.22 73 63.43 72.83C60.8536 71.5775 58.0247 70.931 55.16 70.94ZM54.29 92.67C53.8498 92.5488 53.4473 92.3183 53.12 92C44.58 100 40.25 99.89 38.65 99.4C40.0611 101.863 42.0046 103.98 44.3385 105.596C46.6724 107.212 49.3378 108.286 52.14 108.74C51.17 107.41 49.73 103.42 54.27 92.67H54.29ZM52.51 88.89C40.92 83.7 40.1 79.55 40.16 78.29C37.5569 81.6182 36.1481 85.7248 36.16 89.95C36.1575 91.5563 36.3625 93.1562 36.77 94.71C37.64 93.23 40.77 90.31 52.32 90.26C52.32 90.16 52.32 90.05 52.32 89.95C52.2996 89.5885 52.3576 89.2269 52.49 88.89H52.51ZM69.16 77.08C69.16 78.66 67.95 82.72 57.62 88.44C57.8597 88.8259 57.9973 89.2663 58.02 89.72C69.54 88.75 73 91.39 74 92.79C74.4205 89.9792 74.2077 87.11 73.3772 84.392C72.5468 81.674 71.1196 79.1758 69.2 77.08H69.16ZM52.49 88.89C40.92 83.7 40.1 79.55 40.16 78.29C37.5569 81.6182 36.1481 85.7248 36.16 89.95C36.1575 91.5563 36.3625 93.1562 36.77 94.71C37.64 93.23 40.77 90.31 52.32 90.26C52.32 90.16 52.32 90.05 52.32 89.95C52.2996 89.5885 52.3576 89.2269 52.49 88.89ZM54.27 92.67C53.8369 92.5457 53.4417 92.3155 53.12 92C44.58 100 40.25 99.89 38.65 99.4C40.0611 101.863 42.0046 103.98 44.3385 105.596C46.6724 107.212 49.3378 108.286 52.14 108.74C51.17 107.41 49.73 103.42 54.27 92.67ZM56.27 92.55C56.2766 92.5511 56.2834 92.5511 56.29 92.55H56.27ZM55.16 70.94C52.2098 70.9377 49.2996 71.6225 46.66 72.94C48.3 73.5 51.8 76.01 54.26 87.22C54.5483 87.1152 54.8533 87.0644 55.16 87.07C55.3196 87.0543 55.4804 87.0543 55.64 87.07C58.3 74.61 62.22 73 63.43 72.83C60.8536 71.5775 58.0247 70.931 55.16 70.94ZM57.36 91.8C57.0737 92.1431 56.7106 92.4137 56.3 92.59C61.78 102.33 61.07 106.59 60.3 108.26C63.0203 107.492 65.536 106.13 67.665 104.271C69.794 102.411 71.483 100.102 72.61 97.51C71.32 98.19 67.19 99.08 57.36 91.8ZM69.16 77.08C69.16 78.66 67.95 82.72 57.62 88.44C57.8597 88.8259 57.9973 89.2663 58.02 89.72C69.54 88.75 73 91.39 74 92.79C74.4205 89.9792 74.2077 87.11 73.3772 84.392C72.5468 81.674 71.1196 79.1758 69.2 77.08H69.16ZM57.36 91.8C57.0737 92.1431 56.7106 92.4137 56.3 92.59C61.78 102.33 61.07 106.59 60.3 108.26C63.0203 107.492 65.536 106.13 67.665 104.271C69.794 102.411 71.483 100.102 72.61 97.51C71.32 98.19 67.19 99.08 57.36 91.8ZM55.16 70.94C52.2098 70.9377 49.2996 71.6225 46.66 72.94C48.3 73.5 51.8 76.01 54.26 87.22C54.5483 87.1152 54.8533 87.0644 55.16 87.07C55.3196 87.0543 55.4804 87.0543 55.64 87.07C58.3 74.61 62.22 73 63.43 72.83C60.8536 71.5775 58.0247 70.931 55.16 70.94ZM54.29 92.67C53.8498 92.5488 53.4473 92.3183 53.12 92C44.58 100 40.25 99.89 38.65 99.4C40.0611 101.863 42.0046 103.98 44.3385 105.596C46.6724 107.212 49.3378 108.286 52.14 108.74C51.17 107.41 49.73 103.42 54.27 92.67H54.29ZM52.51 88.89C40.92 83.7 40.1 79.55 40.16 78.29C37.5569 81.6182 36.1481 85.7248 36.16 89.95C36.1575 91.5563 36.3625 93.1562 36.77 94.71C37.64 93.23 40.77 90.31 52.32 90.26C52.32 90.16 52.32 90.05 52.32 89.95C52.2996 89.5885 52.3576 89.2269 52.49 88.89H52.51ZM69.16 77.08C69.16 78.66 67.95 82.72 57.62 88.44C57.8597 88.8259 57.9973 89.2663 58.02 89.72C69.54 88.75 73 91.39 74 92.79C74.4205 89.9792 74.2077 87.11 73.3772 84.392C72.5468 81.674 71.1196 79.1758 69.2 77.08H69.16ZM52.49 88.89C40.92 83.7 40.1 79.55 40.16 78.29C37.5569 81.6182 36.1481 85.7248 36.16 89.95C36.1575 91.5563 36.3625 93.1562 36.77 94.71C37.64 93.23 40.77 90.31 52.32 90.26C52.32 90.16 52.32 90.05 52.32 89.95C52.2996 89.5885 52.3576 89.2269 52.49 88.89ZM54.27 92.67C53.8369 92.5457 53.4417 92.3155 53.12 92C44.58 100 40.25 99.89 38.65 99.4C40.0611 101.863 42.0046 103.98 44.3385 105.596C46.6724 107.212 49.3378 108.286 52.14 108.74C51.17 107.41 49.73 103.42 54.27 92.67ZM56.27 92.55C56.2766 92.5511 56.2834 92.5511 56.29 92.55H56.27ZM55.16 70.94C52.2098 70.9377 49.2996 71.6225 46.66 72.94C48.3 73.5 51.8 76.01 54.26 87.22C54.5483 87.1152 54.8533 87.0644 55.16 87.07C55.3196 87.0543 55.4804 87.0543 55.64 87.07C58.3 74.61 62.22 73 63.43 72.83C60.8536 71.5775 58.0247 70.931 55.16 70.94ZM57.36 91.8C57.0737 92.1431 56.7106 92.4137 56.3 92.59C61.78 102.33 61.07 106.59 60.3 108.26C63.0203 107.492 65.536 106.13 67.665 104.271C69.794 102.411 71.483 100.102 72.61 97.51C71.32 98.19 67.19 99.08 57.36 91.8ZM69.16 77.08C69.16 78.66 67.95 82.72 57.62 88.44C57.8597 88.8259 57.9973 89.2663 58.02 89.72C69.54 88.75 73 91.39 74 92.79C74.4205 89.9792 74.2077 87.11 73.3772 84.392C72.5468 81.674 71.1196 79.1758 69.2 77.08H69.16ZM57.36 91.8C57.0737 92.1431 56.7106 92.4137 56.3 92.59C61.78 102.33 61.07 106.59 60.3 108.26C63.0203 107.492 65.536 106.13 67.665 104.271C69.794 102.411 71.483 100.102 72.61 97.51C71.32 98.19 67.19 99.08 57.36 91.8ZM55.16 70.94C52.2098 70.9377 49.2996 71.6225 46.66 72.94C48.3 73.5 51.8 76.01 54.26 87.22C54.5483 87.1152 54.8533 87.0644 55.16 87.07C55.3196 87.0543 55.4804 87.0543 55.64 87.07C58.3 74.61 62.22 73 63.43 72.83C60.8536 71.5775 58.0247 70.931 55.16 70.94ZM54.29 92.67C53.8498 92.5488 53.4473 92.3183 53.12 92C44.58 100 40.25 99.89 38.65 99.4C40.0611 101.863 42.0046 103.98 44.3385 105.596C46.6724 107.212 49.3378 108.286 52.14 108.74C51.17 107.41 49.73 103.42 54.27 92.67H54.29ZM52.51 88.89C40.92 83.7 40.1 79.55 40.16 78.29C37.5569 81.6182 36.1481 85.7248 36.16 89.95C36.1575 91.5563 36.3625 93.1562 36.77 94.71C37.64 93.23 40.77 90.31 52.32 90.26C52.32 90.16 52.32 90.05 52.32 89.95C52.2996 89.5885 52.3576 89.2269 52.49 88.89H52.51ZM69.16 77.08C69.16 78.66 67.95 82.72 57.62 88.44C57.8597 88.8259 57.9973 89.2663 58.02 89.72C69.54 88.75 73 91.39 74 92.79C74.4205 89.9792 74.2077 87.11 73.3772 84.392C72.5468 81.674 71.1196 79.1758 69.2 77.08H69.16ZM52.49 88.89C40.92 83.7 40.1 79.55 40.16 78.29C37.5569 81.6182 36.1481 85.7248 36.16 89.95C36.1575 91.5563 36.3625 93.1562 36.77 94.71C37.64 93.23 40.77 90.31 52.32 90.26C52.32 90.16 52.32 90.05 52.32 89.95C52.2996 89.5885 52.3576 89.2269 52.49 88.89ZM54.27 92.67C53.8369 92.5457 53.4417 92.3155 53.12 92C44.58 100 40.25 99.89 38.65 99.4C40.0611 101.863 42.0046 103.98 44.3385 105.596C46.6724 107.212 49.3378 108.286 52.14 108.74C51.17 107.41 49.73 103.42 54.27 92.67ZM56.27 92.55C56.2766 92.5511 56.2834 92.5511 56.29 92.55H56.27ZM55.16 70.94C52.2098 70.9377 49.2996 71.6225 46.66 72.94C48.3 73.5 51.8 76.01 54.26 87.22C54.5483 87.1152 54.8533 87.0644 55.16 87.07C55.3196 87.0543 55.4804 87.0543 55.64 87.07C58.3 74.61 62.22 73 63.43 72.83C60.8536 71.5775 58.0247 70.931 55.16 70.94ZM57.36 91.8C57.0737 92.1431 56.7106 92.4137 56.3 92.59C61.78 102.33 61.07 106.59 60.3 108.26C63.0203 107.492 65.536 106.13 67.665 104.271C69.794 102.411 71.483 100.102 72.61 97.51C71.32 98.19 67.19 99.08 57.36 91.8ZM69.16 77.08C69.16 78.66 67.95 82.72 57.62 88.44C57.8597 88.8259 57.9973 89.2663 58.02 89.72C69.54 88.75 73 91.39 74 92.79C74.4205 89.9792 74.2077 87.11 73.3772 84.392C72.5468 81.674 71.1196 79.1758 69.2 77.08H69.16ZM57.36 91.8C57.0737 92.1431 56.7106 92.4137 56.3 92.59C61.78 102.33 61.07 106.59 60.3 108.26C63.0203 107.492 65.536 106.13 67.665 104.271C69.794 102.411 71.483 100.102 72.61 97.51C71.32 98.19 67.19 99.08 57.36 91.8ZM55.16 70.94C52.2098 70.9377 49.2996 71.6225 46.66 72.94C48.3 73.5 51.8 76.01 54.26 87.22C54.5483 87.1152 54.8533 87.0644 55.16 87.07C55.3196 87.0543 55.4804 87.0543 55.64 87.07C58.3 74.61 62.22 73 63.43 72.83C60.8536 71.5775 58.0247 70.931 55.16 70.94ZM54.29 92.67C53.8498 92.5488 53.4473 92.3183 53.12 92C44.58 100 40.25 99.89 38.65 99.4C40.0611 101.863 42.0046 103.98 44.3385 105.596C46.6724 107.212 49.3378 108.286 52.14 108.74C51.17 107.41 49.73 103.42 54.27 92.67H54.29ZM52.51 88.89C40.92 83.7 40.1 79.55 40.16 78.29C37.5569 81.6182 36.1481 85.7248 36.16 89.95C36.1575 91.5563 36.3625 93.1562 36.77 94.71C37.64 93.23 40.77 90.31 52.32 90.26C52.32 90.16 52.32 90.05 52.32 89.95C52.2996 89.5885 52.3576 89.2269 52.49 88.89H52.51ZM69.16 77.08C69.16 78.66 67.95 82.72 57.62 88.44C57.8597 88.8259 57.9973 89.2663 58.02 89.72C69.54 88.75 73 91.39 74 92.79C74.4205 89.9792 74.2077 87.11 73.3772 84.392C72.5468 81.674 71.1196 79.1758 69.2 77.08H69.16ZM52.49 88.89C40.92 83.7 40.1 79.55 40.16 78.29C37.5569 81.6182 36.1481 85.7248 36.16 89.95C36.1575 91.5563 36.3625 93.1562 36.77 94.71C37.64 93.23 40.77 90.31 52.32 90.26C52.32 90.16 52.32 90.05 52.32 89.95C52.2996 89.5885 52.3576 89.2269 52.49 88.89ZM54.27 92.67C53.8369 92.5457 53.4417 92.3155 53.12 92C44.58 100 40.25 99.89 38.65 99.4C40.0611 101.863 42.0046 103.98 44.3385 105.596C46.6724 107.212 49.3378 108.286 52.14 108.74C51.17 107.41 49.73 103.42 54.27 92.67ZM56.27 92.55C56.2766 92.5511 56.2834 92.5511 56.29 92.55H56.27ZM55.16 70.94C52.2098 70.9377 49.2996 71.6225 46.66 72.94C48.3 73.5 51.8 76.01 54.26 87.22C54.5483 87.1152 54.8533 87.0644 55.16 87.07C55.3196 87.0543 55.4804 87.0543 55.64 87.07C58.3 74.61 62.22 73 63.43 72.83C60.8536 71.5775 58.0247 70.931 55.16 70.94ZM57.36 91.8C57.0737 92.1431 56.7106 92.4137 56.3 92.59C61.78 102.33 61.07 106.59 60.3 108.26C63.0203 107.492 65.536 106.13 67.665 104.271C69.794 102.411 71.483 100.102 72.61 97.51C71.32 98.19 67.19 99.08 57.36 91.8ZM69.16 77.08C69.16 78.66 67.95 82.72 57.62 88.44C57.8597 88.8259 57.9973 89.2663 58.02 89.72C69.54 88.75 73 91.39 74 92.79C74.4205 89.9792 74.2077 87.11 73.3772 84.392C72.5468 81.674 71.1196 79.1758 69.2 77.08H69.16ZM57.36 91.8C57.0737 92.1431 56.7106 92.4137 56.3 92.59C61.78 102.33 61.07 106.59 60.3 108.26C63.0203 107.492 65.536 106.13 67.665 104.271C69.794 102.411 71.483 100.102 72.61 97.51C71.32 98.19 67.19 99.08 57.36 91.8ZM55.16 70.94C52.2098 70.9377 49.2996 71.6225 46.66 72.94C48.3 73.5 51.8 76.01 54.26 87.22C54.5483 87.1152 54.8533 87.0644 55.16 87.07C55.3196 87.0543 55.4804 87.0543 55.64 87.07C58.3 74.61 62.22 73 63.43 72.83C60.8536 71.5775 58.0247 70.931 55.16 70.94ZM54.29 92.67C53.8498 92.5488 53.4473 92.3183 53.12 92C44.58 100 40.25 99.89 38.65 99.4C40.0611 101.863 42.0046 103.98 44.3385 105.596C46.6724 107.212 49.3378 108.286 52.14 108.74C51.17 107.41 49.73 103.42 54.27 92.67H54.29ZM52.51 88.89C40.92 83.7 40.1 79.55 40.16 78.29C37.5569 81.6182 36.1481 85.7248 36.16 89.95C36.1575 91.5563 36.3625 93.1562 36.77 94.71C37.64 93.23 40.77 90.31 52.32 90.26C52.32 90.16 52.32 90.05 52.32 89.95C52.2996 89.5885 52.3576 89.2269 52.49 88.89H52.51ZM56.31 92.55C56.3034 92.5489 56.2966 92.5489 56.29 92.55H56.31ZM56.31 92.55C56.3034 92.5489 56.2966 92.5489 56.29 92.55H56.31ZM56.31 92.55C56.3034 92.5489 56.2966 92.5489 56.29 92.55H56.31ZM56.31 92.55C56.3034 92.5489 56.2966 92.5489 56.29 92.55H56.31ZM56.31 92.55C56.3034 92.5489 56.2966 92.5489 56.29 92.55H56.31ZM56.31 92.55C56.3034 92.5489 56.2966 92.5489 56.29 92.55H56.31ZM56.31 92.55C56.3034 92.5489 56.2966 92.5489 56.29 92.55H56.31ZM56.31 92.55C56.3034 92.5489 56.2966 92.5489 56.29 92.55H56.31ZM56.31 92.55C56.3034 92.5489 56.2966 92.5489 56.29 92.55H56.31ZM56.31 92.55C56.3034 92.5489 56.2966 92.5489 56.29 92.55H56.31Z" fill="white"/>
<path d="M52.28 90C52.28 90.1 52.28 90.21 52.28 90.31C40.78 90.31 37.6 93.31 36.73 94.76C36.3293 93.2053 36.131 91.6054 36.14 90C36.1281 85.7748 37.5369 81.6682 40.14 78.34C40.08 79.6 40.9 83.75 52.47 88.94C52.3307 89.2754 52.2659 89.6371 52.28 90Z" fill="white"/>
<path d="M52.14 108.72C49.3378 108.266 46.6724 107.192 44.3385 105.576C42.0046 103.96 40.0611 101.843 38.65 99.38C40.25 99.87 44.58 99.93 53.12 91.98C53.4395 92.3027 53.8349 92.54 54.27 92.67C49.73 103.42 51.17 107.41 52.14 108.72Z" fill="white"/>
<path d="M63.43 72.83C62.22 73.02 58.3 74.61 55.64 87.11C55.4804 87.0943 55.3196 87.0943 55.16 87.11C54.8533 87.1044 54.5482 87.1552 54.26 87.26C51.8 76 48.3 73.5 46.66 72.94C49.2616 71.6434 52.1255 70.9594 55.0322 70.9404C57.939 70.9213 60.8116 71.5677 63.43 72.83Z" fill="white"/>
<path d="M72.61 97.51C71.4779 100.108 69.7811 102.42 67.6431 104.28C65.505 106.139 62.9795 107.499 60.25 108.26C61.07 106.62 61.78 102.33 56.25 92.59C56.6606 92.4137 57.0237 92.143 57.31 91.8C67.19 99.08 71.32 98.19 72.61 97.51Z" fill="white"/>
<path d="M74.17 90C74.1816 90.9329 74.1247 91.8654 74 92.79C73 91.39 69.58 88.79 58.06 89.72C58.0373 89.2663 57.8996 88.8259 57.66 88.44C68 82.72 69.16 78.66 69.16 77.08C72.3969 80.6024 74.186 85.2162 74.17 90Z" fill="white"/>
<path d="M69.16 77.08C69.16 78.66 67.95 82.72 57.62 88.44C57.8596 88.8259 57.9973 89.2663 58.02 89.72C69.54 88.75 73 91.39 74 92.79C74.4205 89.9792 74.2077 87.11 73.3772 84.392C72.5468 81.674 71.1196 79.1758 69.2 77.08H69.16ZM57.36 91.8C57.0737 92.1431 56.7105 92.4137 56.3 92.59C61.78 102.33 61.07 106.59 60.3 108.26C63.0203 107.492 65.536 106.13 67.6649 104.271C69.7939 102.411 71.483 100.102 72.61 97.51C71.32 98.19 67.19 99.08 57.36 91.8ZM55.16 70.94C52.2098 70.9377 49.2996 71.6225 46.66 72.94C48.3 73.5 51.8 76.01 54.26 87.22C54.5482 87.1152 54.8533 87.0644 55.16 87.07C55.3196 87.0543 55.4804 87.0543 55.64 87.07C58.3 74.61 62.22 73 63.43 72.83C60.8536 71.5775 58.0247 70.931 55.16 70.94ZM54.29 92.67C53.8498 92.5488 53.4473 92.3183 53.12 92C44.58 100 40.25 99.89 38.65 99.4C40.0611 101.863 42.0046 103.98 44.3385 105.596C46.6724 107.212 49.3378 108.286 52.14 108.74C51.17 107.41 49.73 103.42 54.27 92.67H54.29ZM52.51 88.89C40.92 83.7 40.1 79.55 40.16 78.29C37.5569 81.6182 36.1481 85.7248 36.16 89.95C36.1575 91.5563 36.3625 93.1562 36.77 94.71C37.64 93.23 40.77 90.31 52.32 90.26C52.32 90.16 52.32 90.05 52.32 89.95C52.2995 89.5885 52.3575 89.2269 52.49 88.89H52.51ZM56.31 92.55C56.3034 92.5489 56.2966 92.5489 56.29 92.55H56.31ZM56.31 92.55C56.3034 92.5489 56.2966 92.5489 56.29 92.55H56.31ZM56.31 92.55C56.3034 92.5489 56.2966 92.5489 56.29 92.55H56.31ZM56.31 92.55C56.3034 92.5489 56.2966 92.5489 56.29 92.55H56.31ZM56.31 92.55C56.3034 92.5489 56.2966 92.5489 56.29 92.55H56.31ZM56.31 92.55C56.3034 92.5489 56.2966 92.5489 56.29 92.55H56.31ZM56.31 92.55C56.3034 92.5489 56.2966 92.5489 56.29 92.55H56.31ZM56.31 92.55C56.3034 92.5489 56.2966 92.5489 56.29 92.55H56.31ZM56.31 92.55C56.3034 92.5489 56.2966 92.5489 56.29 92.55H56.31ZM56.31 92.55C56.3034 92.5489 56.2966 92.5489 56.29 92.55H56.31Z" fill="white"/>
<path d="M58 90C58.0008 90.6589 57.7748 91.298 57.36 91.81C57.0737 92.153 56.7105 92.4237 56.3 92.6C55.938 92.7481 55.5511 92.8262 55.16 92.83C54.8635 92.8306 54.5692 92.7798 54.29 92.68C53.8488 92.5559 53.4462 92.322 53.12 92C52.6974 91.5585 52.4245 90.9953 52.34 90.39V90.32C52.34 90.22 52.34 90.11 52.34 90.01C52.3322 89.6456 52.4039 89.2839 52.55 88.95C52.5453 88.9202 52.5453 88.8898 52.55 88.86C52.7084 88.4972 52.9404 88.1712 53.2313 87.9026C53.5222 87.6341 53.8657 87.4289 54.24 87.3C54.2494 87.2956 54.2596 87.2932 54.27 87.2932C54.2804 87.2932 54.2906 87.2956 54.3 87.3C54.5882 87.1952 54.8933 87.1444 55.2 87.15C55.3596 87.1343 55.5204 87.1343 55.68 87.15H55.76C56.1447 87.2257 56.5098 87.3792 56.8331 87.601C57.1564 87.8228 57.4309 88.1083 57.64 88.44C57.8796 88.8259 58.0173 89.2663 58.04 89.72C58.04 89.8148 58.0265 89.909 58 90Z" fill="white"/>
<path d="M259.21 77.83C259.21 79.41 258.01 83.47 247.67 89.19C247.913 89.5751 248.054 90.0155 248.08 90.47C259.59 89.47 263.02 92.14 264.02 93.54C264.156 92.5993 264.226 91.6504 264.23 90.7C264.239 85.9306 262.446 81.3339 259.21 77.83ZM242.54 89.64C231 84.45 230.15 80.3 230.22 79C228.427 81.2904 227.187 83.9634 226.595 86.8113C226.004 89.6592 226.077 92.6052 226.81 95.42C227.67 93.94 230.81 91.02 242.35 90.97C242.35 90.87 242.35 90.76 242.35 90.66C242.346 90.3109 242.411 89.9643 242.54 89.64ZM244.33 93.42C243.893 93.2877 243.495 93.0508 243.17 92.73C234.63 100.73 230.3 100.62 228.71 100.13C230.118 102.596 232.06 104.715 234.395 106.331C236.729 107.948 239.396 109.02 242.2 109.47C241.22 108.16 239.78 104.17 244.33 93.42ZM246.33 93.3C246.333 93.3002 246.337 93.3002 246.34 93.3H246.33ZM245.21 71.69C242.259 71.684 239.348 72.369 236.71 73.69C238.34 74.25 241.84 76.76 244.31 87.97C244.598 87.8646 244.903 87.8137 245.21 87.82C245.366 87.8048 245.524 87.8048 245.68 87.82C248.34 75.32 252.27 73.73 253.47 73.54C250.897 72.3036 248.075 71.6709 245.22 71.69H245.21ZM247.4 92.55C247.134 92.8886 246.791 93.1593 246.4 93.34C251.87 103.08 251.17 107.34 250.34 109.01C253.07 108.25 255.596 106.891 257.735 105.031C259.873 103.172 261.569 100.858 262.7 98.26C261.38 98.94 257.25 99.83 247.41 92.55H247.4ZM259.2 77.83C259.2 79.41 258 83.47 247.66 89.19C247.903 89.5751 248.044 90.0155 248.07 90.47C259.58 89.47 263.01 92.14 264.01 93.54C264.146 92.5993 264.216 91.6504 264.22 90.7C264.231 85.932 262.442 81.3355 259.21 77.83H259.2ZM247.4 92.55C247.134 92.8886 246.791 93.1593 246.4 93.34C251.87 103.08 251.17 107.34 250.34 109.01C253.07 108.25 255.596 106.891 257.735 105.031C259.873 103.172 261.569 100.858 262.7 98.26C261.38 98.94 257.25 99.83 247.41 92.55H247.4ZM245.21 71.69C242.259 71.684 239.348 72.369 236.71 73.69C238.34 74.25 241.84 76.76 244.31 87.97C244.598 87.8646 244.903 87.8137 245.21 87.82C245.366 87.8048 245.524 87.8048 245.68 87.82C248.34 75.32 252.27 73.73 253.47 73.54C250.897 72.3036 248.075 71.6709 245.22 71.69H245.21ZM246.33 93.3C246.333 93.3002 246.337 93.3002 246.34 93.3H246.33ZM244.33 93.42C243.893 93.2877 243.495 93.0508 243.17 92.73C234.63 100.73 230.3 100.62 228.71 100.13C230.118 102.596 232.06 104.715 234.395 106.331C236.729 107.948 239.396 109.02 242.2 109.47C241.22 108.16 239.78 104.17 244.33 93.42ZM242.54 89.64C231 84.45 230.15 80.3 230.22 79C228.427 81.2904 227.187 83.9634 226.595 86.8113C226.004 89.6592 226.077 92.6052 226.81 95.42C227.67 93.94 230.81 91.02 242.35 90.97C242.35 90.87 242.35 90.76 242.35 90.66C242.346 90.3109 242.411 89.9643 242.54 89.64ZM259.21 77.83C259.21 79.41 258.01 83.47 247.67 89.19C247.913 89.5751 248.054 90.0155 248.08 90.47C259.59 89.47 263.02 92.14 264.02 93.54C264.156 92.5993 264.226 91.6504 264.23 90.7C264.239 85.9306 262.446 81.3339 259.21 77.83ZM242.54 89.64C231 84.45 230.15 80.3 230.22 79C228.427 81.2904 227.187 83.9634 226.595 86.8113C226.004 89.6592 226.077 92.6052 226.81 95.42C227.67 93.94 230.81 91.02 242.35 90.97C242.35 90.87 242.35 90.76 242.35 90.66C242.346 90.3109 242.411 89.9643 242.54 89.64ZM244.33 93.42C243.893 93.2877 243.495 93.0508 243.17 92.73C234.63 100.73 230.3 100.62 228.71 100.13C230.118 102.596 232.06 104.715 234.395 106.331C236.729 107.948 239.396 109.02 242.2 109.47C241.22 108.16 239.78 104.17 244.33 93.42ZM246.33 93.3C246.333 93.3002 246.337 93.3002 246.34 93.3H246.33ZM245.21 71.69C242.259 71.684 239.348 72.369 236.71 73.69C238.34 74.25 241.84 76.76 244.31 87.97C244.598 87.8646 244.903 87.8137 245.21 87.82C245.366 87.8048 245.524 87.8048 245.68 87.82C248.34 75.32 252.27 73.73 253.47 73.54C250.897 72.3036 248.075 71.6709 245.22 71.69H245.21ZM247.4 92.55C247.134 92.8886 246.791 93.1593 246.4 93.34C251.87 103.08 251.17 107.34 250.34 109.01C253.07 108.25 255.596 106.891 257.735 105.031C259.873 103.172 261.569 100.858 262.7 98.26C261.38 98.94 257.25 99.83 247.41 92.55H247.4ZM259.2 77.83C259.2 79.41 258 83.47 247.66 89.19C247.903 89.5751 248.044 90.0155 248.07 90.47C259.58 89.47 263.01 92.14 264.01 93.54C264.146 92.5993 264.216 91.6504 264.22 90.7C264.231 85.932 262.442 81.3355 259.21 77.83H259.2ZM247.4 92.55C247.134 92.8886 246.791 93.1593 246.4 93.34C251.87 103.08 251.17 107.34 250.34 109.01C253.07 108.25 255.596 106.891 257.735 105.031C259.873 103.172 261.569 100.858 262.7 98.26C261.38 98.94 257.25 99.83 247.41 92.55H247.4ZM245.21 71.69C242.259 71.684 239.348 72.369 236.71 73.69C238.34 74.25 241.84 76.76 244.31 87.97C244.598 87.8646 244.903 87.8137 245.21 87.82C245.366 87.8048 245.524 87.8048 245.68 87.82C248.34 75.32 252.27 73.73 253.47 73.54C250.897 72.3036 248.075 71.6709 245.22 71.69H245.21ZM246.33 93.3C246.333 93.3002 246.337 93.3002 246.34 93.3H246.33ZM244.33 93.42C243.893 93.2877 243.495 93.0508 243.17 92.73C234.63 100.73 230.3 100.62 228.71 100.13C230.118 102.596 232.06 104.715 234.395 106.331C236.729 107.948 239.396 109.02 242.2 109.47C241.22 108.16 239.78 104.17 244.33 93.42ZM242.54 89.64C231 84.45 230.15 80.3 230.22 79C228.427 81.2904 227.187 83.9634 226.595 86.8113C226.004 89.6592 226.077 92.6052 226.81 95.42C227.67 93.94 230.81 91.02 242.35 90.97C242.35 90.87 242.35 90.76 242.35 90.66C242.346 90.3109 242.411 89.9643 242.54 89.64ZM259.21 77.83C259.21 79.41 258.01 83.47 247.67 89.19C247.913 89.5751 248.054 90.0155 248.08 90.47C259.59 89.47 263.02 92.14 264.02 93.54C264.156 92.5993 264.226 91.6504 264.23 90.7C264.239 85.9306 262.446 81.3339 259.21 77.83ZM242.54 89.64C231 84.45 230.15 80.3 230.22 79C228.427 81.2904 227.187 83.9634 226.595 86.8113C226.004 89.6592 226.077 92.6052 226.81 95.42C227.67 93.94 230.81 91.02 242.35 90.97C242.35 90.87 242.35 90.76 242.35 90.66C242.346 90.3109 242.411 89.9643 242.54 89.64ZM244.33 93.42C243.893 93.2877 243.495 93.0508 243.17 92.73C234.63 100.73 230.3 100.62 228.71 100.13C230.118 102.596 232.06 104.715 234.395 106.331C236.729 107.948 239.396 109.02 242.2 109.47C241.22 108.16 239.78 104.17 244.33 93.42ZM246.33 93.3C246.333 93.3002 246.337 93.3002 246.34 93.3H246.33ZM245.21 71.69C242.259 71.684 239.348 72.369 236.71 73.69C238.34 74.25 241.84 76.76 244.31 87.97C244.598 87.8646 244.903 87.8137 245.21 87.82C245.366 87.8048 245.524 87.8048 245.68 87.82C248.34 75.32 252.27 73.73 253.47 73.54C250.897 72.3036 248.075 71.6709 245.22 71.69H245.21ZM247.4 92.55C247.134 92.8886 246.791 93.1593 246.4 93.34C251.87 103.08 251.17 107.34 250.34 109.01C253.07 108.25 255.596 106.891 257.735 105.031C259.873 103.172 261.569 100.858 262.7 98.26C261.38 98.94 257.25 99.83 247.41 92.55H247.4ZM259.2 77.83C259.2 79.41 258 83.47 247.66 89.19C247.903 89.5751 248.044 90.0155 248.07 90.47C259.58 89.47 263.01 92.14 264.01 93.54C264.146 92.5993 264.216 91.6504 264.22 90.7C264.231 85.932 262.442 81.3355 259.21 77.83H259.2ZM247.4 92.55C247.134 92.8886 246.791 93.1593 246.4 93.34C251.87 103.08 251.17 107.34 250.34 109.01C253.07 108.25 255.596 106.891 257.735 105.031C259.873 103.172 261.569 100.858 262.7 98.26C261.38 98.94 257.25 99.83 247.41 92.55H247.4ZM245.21 71.69C242.259 71.684 239.348 72.369 236.71 73.69C238.34 74.25 241.84 76.76 244.31 87.97C244.598 87.8646 244.903 87.8137 245.21 87.82C245.366 87.8048 245.524 87.8048 245.68 87.82C248.34 75.32 252.27 73.73 253.47 73.54C250.897 72.3036 248.075 71.6709 245.22 71.69H245.21ZM246.33 93.3C246.333 93.3002 246.337 93.3002 246.34 93.3H246.33ZM244.33 93.42C243.893 93.2877 243.495 93.0508 243.17 92.73C234.63 100.73 230.3 100.62 228.71 100.13C230.118 102.596 232.06 104.715 234.395 106.331C236.729 107.948 239.396 109.02 242.2 109.47C241.22 108.16 239.78 104.17 244.33 93.42ZM242.54 89.64C231 84.45 230.15 80.3 230.22 79C228.427 81.2904 227.187 83.9634 226.595 86.8113C226.004 89.6592 226.077 92.6052 226.81 95.42C227.67 93.94 230.81 91.02 242.35 90.97C242.35 90.87 242.35 90.76 242.35 90.66C242.346 90.3109 242.411 89.9643 242.54 89.64ZM259.21 77.83C259.21 79.41 258.01 83.47 247.67 89.19C247.913 89.5751 248.054 90.0155 248.08 90.47C259.59 89.47 263.02 92.14 264.02 93.54C264.156 92.5993 264.226 91.6504 264.23 90.7C264.239 85.9306 262.446 81.3339 259.21 77.83ZM242.54 89.64C231 84.45 230.15 80.3 230.22 79C228.427 81.2904 227.187 83.9634 226.595 86.8113C226.004 89.6592 226.077 92.6052 226.81 95.42C227.67 93.94 230.81 91.02 242.35 90.97C242.35 90.87 242.35 90.76 242.35 90.66C242.346 90.3109 242.411 89.9643 242.54 89.64ZM244.33 93.42C243.893 93.2877 243.495 93.0508 243.17 92.73C234.63 100.73 230.3 100.62 228.71 100.13C230.118 102.596 232.06 104.715 234.395 106.331C236.729 107.948 239.396 109.02 242.2 109.47C241.22 108.16 239.78 104.17 244.33 93.42ZM246.33 93.3C246.333 93.3002 246.337 93.3002 246.34 93.3H246.33ZM245.21 71.69C242.259 71.684 239.348 72.369 236.71 73.69C238.34 74.25 241.84 76.76 244.31 87.97C244.598 87.8646 244.903 87.8137 245.21 87.82C245.366 87.8048 245.524 87.8048 245.68 87.82C248.34 75.32 252.27 73.73 253.47 73.54C250.897 72.3036 248.075 71.6709 245.22 71.69H245.21ZM247.4 92.55C247.134 92.8886 246.791 93.1593 246.4 93.34C251.87 103.08 251.17 107.34 250.34 109.01C253.07 108.25 255.596 106.891 257.735 105.031C259.873 103.172 261.569 100.858 262.7 98.26C261.38 98.94 257.25 99.83 247.41 92.55H247.4ZM259.2 77.83C259.2 79.41 258 83.47 247.66 89.19C247.903 89.5751 248.044 90.0155 248.07 90.47C259.58 89.47 263.01 92.14 264.01 93.54C264.146 92.5993 264.216 91.6504 264.22 90.7C264.231 85.932 262.442 81.3355 259.21 77.83H259.2ZM247.4 92.55C247.134 92.8886 246.791 93.1593 246.4 93.34C251.87 103.08 251.17 107.34 250.34 109.01C253.07 108.25 255.596 106.891 257.735 105.031C259.873 103.172 261.569 100.858 262.7 98.26C261.38 98.94 257.25 99.83 247.41 92.55H247.4ZM245.21 71.69C242.259 71.684 239.348 72.369 236.71 73.69C238.34 74.25 241.84 76.76 244.31 87.97C244.598 87.8646 244.903 87.8137 245.21 87.82C245.366 87.8048 245.524 87.8048 245.68 87.82C248.34 75.32 252.27 73.73 253.47 73.54C250.897 72.3036 248.075 71.6709 245.22 71.69H245.21ZM246.33 93.3C246.333 93.3002 246.337 93.3002 246.34 93.3H246.33ZM244.33 93.42C243.893 93.2877 243.495 93.0508 243.17 92.73C234.63 100.73 230.3 100.62 228.71 100.13C230.118 102.596 232.06 104.715 234.395 106.331C236.729 107.948 239.396 109.02 242.2 109.47C241.22 108.16 239.78 104.17 244.33 93.42ZM242.54 89.64C231 84.45 230.15 80.3 230.22 79C228.427 81.2904 227.187 83.9634 226.595 86.8113C226.004 89.6592 226.077 92.6052 226.81 95.42C227.67 93.94 230.81 91.02 242.35 90.97C242.35 90.87 242.35 90.76 242.35 90.66C242.346 90.3109 242.411 89.9643 242.54 89.64ZM259.21 77.83C259.21 79.41 258.01 83.47 247.67 89.19C247.913 89.5751 248.054 90.0155 248.08 90.47C259.59 89.47 263.02 92.14 264.02 93.54C264.156 92.5993 264.226 91.6504 264.23 90.7C264.239 85.9306 262.446 81.3339 259.21 77.83ZM242.54 89.64C231 84.45 230.15 80.3 230.22 79C228.427 81.2904 227.187 83.9634 226.595 86.8113C226.004 89.6592 226.077 92.6052 226.81 95.42C227.67 93.94 230.81 91.02 242.35 90.97C242.35 90.87 242.35 90.76 242.35 90.66C242.346 90.3109 242.411 89.9643 242.54 89.64ZM244.33 93.42C243.893 93.2877 243.495 93.0508 243.17 92.73C234.63 100.73 230.3 100.62 228.71 100.13C230.118 102.596 232.06 104.715 234.395 106.331C236.729 107.948 239.396 109.02 242.2 109.47C241.22 108.16 239.78 104.17 244.33 93.42ZM246.33 93.3C246.333 93.3002 246.337 93.3002 246.34 93.3H246.33ZM245.21 71.69C242.259 71.684 239.348 72.369 236.71 73.69C238.34 74.25 241.84 76.76 244.31 87.97C244.598 87.8646 244.903 87.8137 245.21 87.82C245.366 87.8048 245.524 87.8048 245.68 87.82C248.34 75.32 252.27 73.73 253.47 73.54C250.897 72.3036 248.075 71.6709 245.22 71.69H245.21ZM247.4 92.55C247.134 92.8886 246.791 93.1593 246.4 93.34C251.87 103.08 251.17 107.34 250.34 109.01C253.07 108.25 255.596 106.891 257.735 105.031C259.873 103.172 261.569 100.858 262.7 98.26C261.38 98.94 257.25 99.83 247.41 92.55H247.4ZM259.2 77.83C259.2 79.41 258 83.47 247.66 89.19C247.903 89.5751 248.044 90.0155 248.07 90.47C259.58 89.47 263.01 92.14 264.01 93.54C264.146 92.5993 264.216 91.6504 264.22 90.7C264.231 85.932 262.442 81.3355 259.21 77.83H259.2ZM247.4 92.55C247.134 92.8886 246.791 93.1593 246.4 93.34C251.87 103.08 251.17 107.34 250.34 109.01C253.07 108.25 255.596 106.891 257.735 105.031C259.873 103.172 261.569 100.858 262.7 98.26C261.38 98.94 257.25 99.83 247.41 92.55H247.4ZM245.21 71.69C242.259 71.684 239.348 72.369 236.71 73.69C238.34 74.25 241.84 76.76 244.31 87.97C244.598 87.8646 244.903 87.8137 245.21 87.82C245.366 87.8048 245.524 87.8048 245.68 87.82C248.34 75.32 252.27 73.73 253.47 73.54C250.897 72.3036 248.075 71.6709 245.22 71.69H245.21ZM246.33 93.3C246.333 93.3002 246.337 93.3002 246.34 93.3H246.33ZM244.33 93.42C243.893 93.2877 243.495 93.0508 243.17 92.73C234.63 100.73 230.3 100.62 228.71 100.13C230.118 102.596 232.06 104.715 234.395 106.331C236.729 107.948 239.396 109.02 242.2 109.47C241.22 108.16 239.78 104.17 244.33 93.42ZM242.54 89.64C231 84.45 230.15 80.3 230.22 79C228.427 81.2904 227.187 83.9634 226.595 86.8113C226.004 89.6592 226.077 92.6052 226.81 95.42C227.67 93.94 230.81 91.02 242.35 90.97C242.35 90.87 242.35 90.76 242.35 90.66C242.346 90.3109 242.411 89.9643 242.54 89.64ZM259.21 77.83C259.21 79.41 258.01 83.47 247.67 89.19C247.913 89.5751 248.054 90.0155 248.08 90.47C259.59 89.47 263.02 92.14 264.02 93.54C264.156 92.5993 264.226 91.6504 264.23 90.7C264.239 85.9306 262.446 81.3339 259.21 77.83ZM242.54 89.64C231 84.45 230.15 80.3 230.22 79C228.427 81.2904 227.187 83.9634 226.595 86.8113C226.004 89.6592 226.077 92.6052 226.81 95.42C227.67 93.94 230.81 91.02 242.35 90.97C242.35 90.87 242.35 90.76 242.35 90.66C242.346 90.3109 242.411 89.9643 242.54 89.64ZM244.33 93.42C243.893 93.2877 243.495 93.0508 243.17 92.73C234.63 100.73 230.3 100.62 228.71 100.13C230.118 102.596 232.06 104.715 234.395 106.331C236.729 107.948 239.396 109.02 242.2 109.47C241.22 108.16 239.78 104.17 244.33 93.42ZM246.33 93.3C246.333 93.3002 246.337 93.3002 246.34 93.3H246.33ZM245.21 71.69C242.259 71.684 239.348 72.369 236.71 73.69C238.34 74.25 241.84 76.76 244.31 87.97C244.598 87.8646 244.903 87.8137 245.21 87.82C245.366 87.8048 245.524 87.8048 245.68 87.82C248.34 75.32 252.27 73.73 253.47 73.54C250.897 72.3036 248.075 71.6709 245.22 71.69H245.21ZM247.4 92.55C247.134 92.8886 246.791 93.1593 246.4 93.34C251.87 103.08 251.17 107.34 250.34 109.01C253.07 108.25 255.596 106.891 257.735 105.031C259.873 103.172 261.569 100.858 262.7 98.26C261.38 98.94 257.25 99.83 247.41 92.55H247.4ZM259.2 77.83C259.2 79.41 258 83.47 247.66 89.19C247.903 89.5751 248.044 90.0155 248.07 90.47C259.58 89.47 263.01 92.14 264.01 93.54C264.146 92.5993 264.216 91.6504 264.22 90.7C264.231 85.932 262.442 81.3355 259.21 77.83H259.2ZM247.4 92.55C247.134 92.8886 246.791 93.1593 246.4 93.34C251.87 103.08 251.17 107.34 250.34 109.01C253.07 108.25 255.596 106.891 257.735 105.031C259.873 103.172 261.569 100.858 262.7 98.26C261.38 98.94 257.25 99.83 247.41 92.55H247.4ZM253.47 73.55C250.854 72.2856 247.983 71.638 245.077 71.6571C242.172 71.6762 239.309 72.3614 236.71 73.66C238.34 74.22 241.84 76.73 244.31 87.94C244.598 87.8346 244.903 87.7837 245.21 87.79C245.366 87.7748 245.524 87.7748 245.68 87.79C248.35 75.36 252.28 73.77 253.48 73.58L253.47 73.55ZM243.16 92.7C234.62 100.7 230.29 100.59 228.7 100.1C230.108 102.566 232.05 104.685 234.385 106.301C236.719 107.918 239.386 108.99 242.19 109.44C241.19 108.13 239.77 104.14 244.32 93.44C243.885 93.3004 243.49 93.0567 243.17 92.73L243.16 92.7ZM242.32 90.7C242.317 90.3361 242.389 89.9753 242.53 89.64C231 84.45 230.15 80.3 230.22 79C228.427 81.2904 227.187 83.9634 226.595 86.8113C226.004 89.6592 226.077 92.6052 226.81 95.42C227.67 93.94 230.81 91.02 242.35 90.97C242.34 90.91 242.33 90.8 242.33 90.7H242.32ZM259.2 77.83C259.2 79.41 258 83.47 247.66 89.19C247.903 89.5751 248.044 90.0155 248.07 90.47C259.58 89.47 263.01 92.14 264.01 93.54C264.146 92.5993 264.216 91.6504 264.22 90.7C264.231 85.932 262.442 81.3355 259.21 77.83H259.2ZM245.2 65.76C240.268 65.764 235.448 67.23 231.35 69.9729C227.251 72.7157 224.057 76.6122 222.173 81.1697C220.288 85.7273 219.797 90.7412 220.762 95.5778C221.726 100.414 224.103 104.856 227.592 108.342C231.081 111.828 235.524 114.202 240.362 115.162C245.199 116.123 250.213 115.628 254.769 113.74C259.325 111.851 263.219 108.655 265.958 104.554C268.698 100.453 270.16 95.6318 270.16 90.7C270.161 87.4245 269.517 84.1808 268.264 81.1543C267.011 78.1279 265.174 75.378 262.858 73.0618C260.542 70.7457 257.792 68.9087 254.766 67.6558C251.739 66.4029 248.496 65.7587 245.22 65.76H245.2ZM245.2 110.85C241.213 110.846 237.317 109.66 234.004 107.442C230.691 105.224 228.11 102.073 226.588 98.3888C225.065 94.7041 224.67 90.6507 225.451 86.7411C226.232 82.8315 228.154 79.2412 230.975 76.4242C233.797 73.6071 237.39 71.6898 241.3 70.9147C245.211 70.1396 249.264 70.5414 252.946 72.0694C256.629 73.5974 259.776 76.1829 261.989 79.4991C264.202 82.8152 265.382 86.7132 265.38 90.7C265.377 96.045 263.252 101.17 259.472 104.949C255.691 108.727 250.565 110.85 245.22 110.85H245.2ZM247.39 92.55C247.124 92.8886 246.781 93.1593 246.39 93.34C251.86 103.08 251.16 107.34 250.33 109.01C253.06 108.25 255.586 106.891 257.724 105.031C259.863 103.172 261.559 100.858 262.69 98.26C261.38 98.94 257.25 99.83 247.41 92.55H247.39ZM253.46 73.55C250.844 72.2856 247.973 71.638 245.067 71.6571C242.162 71.6762 239.299 72.3614 236.7 73.66C238.33 74.22 241.83 76.73 244.3 87.94C244.588 87.8346 244.893 87.7837 245.2 87.79C245.356 87.7748 245.514 87.7748 245.67 87.79C248.35 75.36 252.28 73.77 253.48 73.58L253.46 73.55ZM243.15 92.7C234.61 100.7 230.28 100.59 228.69 100.1C230.098 102.566 232.04 104.685 234.375 106.301C236.709 107.918 239.376 108.99 242.18 109.44C241.18 108.13 239.76 104.14 244.31 93.44C243.878 93.299 243.487 93.0553 243.17 92.73L243.15 92.7ZM242.31 90.7C242.307 90.3361 242.379 89.9753 242.52 89.64C231 84.45 230.15 80.3 230.22 79C228.427 81.2904 227.187 83.9634 226.595 86.8113C226.004 89.6592 226.077 92.6052 226.81 95.42C227.67 93.94 230.81 91.02 242.35 90.97C242.34 90.91 242.33 90.8 242.33 90.7H242.31ZM259.19 77.83C259.19 79.41 257.99 83.47 247.65 89.19C247.893 89.5751 248.034 90.0155 248.06 90.47C259.57 89.47 263 92.14 264 93.54C264.136 92.5993 264.206 91.6504 264.21 90.7C264.224 85.9333 262.438 81.337 259.21 77.83H259.19ZM242.54 89.64C231 84.45 230.15 80.3 230.22 79C228.427 81.2904 227.187 83.9634 226.595 86.8113C226.004 89.6592 226.077 92.6052 226.81 95.42C227.67 93.94 230.81 91.02 242.35 90.97C242.35 90.87 242.35 90.76 242.35 90.66C242.346 90.3109 242.411 89.9643 242.54 89.64ZM244.33 93.42C243.893 93.2877 243.495 93.0508 243.17 92.73C234.63 100.73 230.3 100.62 228.71 100.13C230.118 102.596 232.06 104.715 234.395 106.331C236.729 107.948 239.396 109.02 242.2 109.47C241.22 108.16 239.78 104.17 244.33 93.42ZM246.33 93.3C246.333 93.3002 246.337 93.3002 246.34 93.3H246.33ZM245.21 71.69C242.259 71.684 239.348 72.369 236.71 73.69C238.34 74.25 241.84 76.76 244.31 87.97C244.598 87.8646 244.903 87.8137 245.21 87.82C245.366 87.8048 245.524 87.8048 245.68 87.82C248.34 75.32 252.27 73.73 253.47 73.54C250.897 72.3036 248.075 71.6709 245.22 71.69H245.21ZM247.4 92.55C247.134 92.8886 246.791 93.1593 246.4 93.34C251.87 103.08 251.17 107.34 250.34 109.01C253.07 108.25 255.596 106.891 257.735 105.031C259.873 103.172 261.569 100.858 262.7 98.26C261.38 98.94 257.25 99.83 247.41 92.55H247.4ZM259.2 77.83C259.2 79.41 258 83.47 247.66 89.19C247.903 89.5751 248.044 90.0155 248.07 90.47C259.58 89.47 263.01 92.14 264.01 93.54C264.146 92.5993 264.216 91.6504 264.22 90.7C264.231 85.932 262.442 81.3355 259.21 77.83H259.2ZM247.4 92.55C247.134 92.8886 246.791 93.1593 246.4 93.34C251.87 103.08 251.17 107.34 250.34 109.01C253.07 108.25 255.596 106.891 257.735 105.031C259.873 103.172 261.569 100.858 262.7 98.26C261.38 98.94 257.25 99.83 247.41 92.55H247.4ZM245.21 71.69C242.259 71.684 239.348 72.369 236.71 73.69C238.34 74.25 241.84 76.76 244.31 87.97C244.598 87.8646 244.903 87.8137 245.21 87.82C245.366 87.8048 245.524 87.8048 245.68 87.82C248.34 75.32 252.27 73.73 253.47 73.54C250.897 72.3036 248.075 71.6709 245.22 71.69H245.21ZM246.33 93.3C246.333 93.3002 246.337 93.3002 246.34 93.3H246.33ZM244.33 93.42C243.893 93.2877 243.495 93.0508 243.17 92.73C234.63 100.73 230.3 100.62 228.71 100.13C230.118 102.596 232.06 104.715 234.395 106.331C236.729 107.948 239.396 109.02 242.2 109.47C241.22 108.16 239.78 104.17 244.33 93.42ZM242.54 89.64C231 84.45 230.15 80.3 230.22 79C228.427 81.2904 227.187 83.9634 226.595 86.8113C226.004 89.6592 226.077 92.6052 226.81 95.42C227.67 93.94 230.81 91.02 242.35 90.97C242.35 90.87 242.35 90.76 242.35 90.66C242.346 90.3109 242.411 89.9643 242.54 89.64ZM259.21 77.83C259.21 79.41 258.01 83.47 247.67 89.19C247.913 89.5751 248.054 90.0155 248.08 90.47C259.59 89.47 263.02 92.14 264.02 93.54C264.156 92.5993 264.226 91.6504 264.23 90.7C264.239 85.9306 262.446 81.3339 259.21 77.83ZM242.54 89.64C231 84.45 230.15 80.3 230.22 79C228.427 81.2904 227.187 83.9634 226.595 86.8113C226.004 89.6592 226.077 92.6052 226.81 95.42C227.67 93.94 230.81 91.02 242.35 90.97C242.35 90.87 242.35 90.76 242.35 90.66C242.346 90.3109 242.411 89.9643 242.54 89.64ZM244.33 93.42C243.893 93.2877 243.495 93.0508 243.17 92.73C234.63 100.73 230.3 100.62 228.71 100.13C230.118 102.596 232.06 104.715 234.395 106.331C236.729 107.948 239.396 109.02 242.2 109.47C241.22 108.16 239.78 104.17 244.33 93.42ZM246.33 93.3C246.333 93.3002 246.337 93.3002 246.34 93.3H246.33ZM245.21 71.69C242.259 71.684 239.348 72.369 236.71 73.69C238.34 74.25 241.84 76.76 244.31 87.97C244.598 87.8646 244.903 87.8137 245.21 87.82C245.366 87.8048 245.524 87.8048 245.68 87.82C248.34 75.32 252.27 73.73 253.47 73.54C250.897 72.3036 248.075 71.6709 245.22 71.69H245.21ZM247.4 92.55C247.134 92.8886 246.791 93.1593 246.4 93.34C251.87 103.08 251.17 107.34 250.34 109.01C253.07 108.25 255.596 106.891 257.735 105.031C259.873 103.172 261.569 100.858 262.7 98.26C261.38 98.94 257.25 99.83 247.41 92.55H247.4ZM259.2 77.83C259.2 79.41 258 83.47 247.66 89.19C247.903 89.5751 248.044 90.0155 248.07 90.47C259.58 89.47 263.01 92.14 264.01 93.54C264.146 92.5993 264.216 91.6504 264.22 90.7C264.231 85.932 262.442 81.3355 259.21 77.83H259.2ZM247.4 92.55C247.134 92.8886 246.791 93.1593 246.4 93.34C251.87 103.08 251.17 107.34 250.34 109.01C253.07 108.25 255.596 106.891 257.735 105.031C259.873 103.172 261.569 100.858 262.7 98.26C261.38 98.94 257.25 99.83 247.41 92.55H247.4ZM245.21 71.69C242.259 71.684 239.348 72.369 236.71 73.69C238.34 74.25 241.84 76.76 244.31 87.97C244.598 87.8646 244.903 87.8137 245.21 87.82C245.366 87.8048 245.524 87.8048 245.68 87.82C248.34 75.32 252.27 73.73 253.47 73.54C250.897 72.3036 248.075 71.6709 245.22 71.69H245.21ZM246.33 93.3C246.333 93.3002 246.337 93.3002 246.34 93.3H246.33ZM244.33 93.42C243.893 93.2877 243.495 93.0508 243.17 92.73C234.63 100.73 230.3 100.62 228.71 100.13C230.118 102.596 232.06 104.715 234.395 106.331C236.729 107.948 239.396 109.02 242.2 109.47C241.22 108.16 239.78 104.17 244.33 93.42ZM242.54 89.64C231 84.45 230.15 80.3 230.22 79C228.427 81.2904 227.187 83.9634 226.595 86.8113C226.004 89.6592 226.077 92.6052 226.81 95.42C227.67 93.94 230.81 91.02 242.35 90.97C242.35 90.87 242.35 90.76 242.35 90.66C242.346 90.3109 242.411 89.9643 242.54 89.64ZM259.21 77.83C259.21 79.41 258.01 83.47 247.67 89.19C247.913 89.5751 248.054 90.0155 248.08 90.47C259.59 89.47 263.02 92.14 264.02 93.54C264.156 92.5993 264.226 91.6504 264.23 90.7C264.239 85.9306 262.446 81.3339 259.21 77.83ZM242.54 89.64C231 84.45 230.15 80.3 230.22 79C228.427 81.2904 227.187 83.9634 226.595 86.8113C226.004 89.6592 226.077 92.6052 226.81 95.42C227.67 93.94 230.81 91.02 242.35 90.97C242.35 90.87 242.35 90.76 242.35 90.66C242.346 90.3109 242.411 89.9643 242.54 89.64ZM244.33 93.42C243.893 93.2877 243.495 93.0508 243.17 92.73C234.63 100.73 230.3 100.62 228.71 100.13C230.118 102.596 232.06 104.715 234.395 106.331C236.729 107.948 239.396 109.02 242.2 109.47C241.22 108.16 239.78 104.17 244.33 93.42ZM246.33 93.3C246.333 93.3002 246.337 93.3002 246.34 93.3H246.33ZM245.21 71.69C242.259 71.684 239.348 72.369 236.71 73.69C238.34 74.25 241.84 76.76 244.31 87.97C244.598 87.8646 244.903 87.8137 245.21 87.82C245.366 87.8048 245.524 87.8048 245.68 87.82C248.34 75.32 252.27 73.73 253.47 73.54C250.897 72.3036 248.075 71.6709 245.22 71.69H245.21ZM247.4 92.55C247.134 92.8886 246.791 93.1593 246.4 93.34C251.87 103.08 251.17 107.34 250.34 109.01C253.07 108.25 255.596 106.891 257.735 105.031C259.873 103.172 261.569 100.858 262.7 98.26C261.38 98.94 257.25 99.83 247.41 92.55H247.4ZM259.2 77.83C259.2 79.41 258 83.47 247.66 89.19C247.903 89.5751 248.044 90.0155 248.07 90.47C259.58 89.47 263.01 92.14 264.01 93.54C264.146 92.5993 264.216 91.6504 264.22 90.7C264.231 85.932 262.442 81.3355 259.21 77.83H259.2ZM247.4 92.55C247.134 92.8886 246.791 93.1593 246.4 93.34C251.87 103.08 251.17 107.34 250.34 109.01C253.07 108.25 255.596 106.891 257.735 105.031C259.873 103.172 261.569 100.858 262.7 98.26C261.38 98.94 257.25 99.83 247.41 92.55H247.4ZM245.21 71.69C242.259 71.684 239.348 72.369 236.71 73.69C238.34 74.25 241.84 76.76 244.31 87.97C244.598 87.8646 244.903 87.8137 245.21 87.82C245.366 87.8048 245.524 87.8048 245.68 87.82C248.34 75.32 252.27 73.73 253.47 73.54C250.897 72.3036 248.075 71.6709 245.22 71.69H245.21ZM246.33 93.3C246.333 93.3002 246.337 93.3002 246.34 93.3H246.33ZM244.33 93.42C243.893 93.2877 243.495 93.0508 243.17 92.73C234.63 100.73 230.3 100.62 228.71 100.13C230.118 102.596 232.06 104.715 234.395 106.331C236.729 107.948 239.396 109.02 242.2 109.47C241.22 108.16 239.78 104.17 244.33 93.42ZM242.54 89.64C231 84.45 230.15 80.3 230.22 79C228.427 81.2904 227.187 83.9634 226.595 86.8113C226.004 89.6592 226.077 92.6052 226.81 95.42C227.67 93.94 230.81 91.02 242.35 90.97C242.35 90.87 242.35 90.76 242.35 90.66C242.346 90.3109 242.411 89.9643 242.54 89.64ZM259.21 77.83C259.21 79.41 258.01 83.47 247.67 89.19C247.913 89.5751 248.054 90.0155 248.08 90.47C259.59 89.47 263.02 92.14 264.02 93.54C264.156 92.5993 264.226 91.6504 264.23 90.7C264.239 85.9306 262.446 81.3339 259.21 77.83ZM242.54 89.64C231 84.45 230.15 80.3 230.22 79C228.427 81.2904 227.187 83.9634 226.595 86.8113C226.004 89.6592 226.077 92.6052 226.81 95.42C227.67 93.94 230.81 91.02 242.35 90.97C242.35 90.87 242.35 90.76 242.35 90.66C242.346 90.3109 242.411 89.9643 242.54 89.64ZM244.33 93.42C243.893 93.2877 243.495 93.0508 243.17 92.73C234.63 100.73 230.3 100.62 228.71 100.13C230.118 102.596 232.06 104.715 234.395 106.331C236.729 107.948 239.396 109.02 242.2 109.47C241.22 108.16 239.78 104.17 244.33 93.42ZM246.33 93.3C246.333 93.3002 246.337 93.3002 246.34 93.3H246.33ZM245.21 71.69C242.259 71.684 239.348 72.369 236.71 73.69C238.34 74.25 241.84 76.76 244.31 87.97C244.598 87.8646 244.903 87.8137 245.21 87.82C245.366 87.8048 245.524 87.8048 245.68 87.82C248.34 75.32 252.27 73.73 253.47 73.54C250.897 72.3036 248.075 71.6709 245.22 71.69H245.21ZM247.4 92.55C247.134 92.8886 246.791 93.1593 246.4 93.34C251.87 103.08 251.17 107.34 250.34 109.01C253.07 108.25 255.596 106.891 257.735 105.031C259.873 103.172 261.569 100.858 262.7 98.26C261.38 98.94 257.25 99.83 247.41 92.55H247.4ZM259.2 77.83C259.2 79.41 258 83.47 247.66 89.19C247.903 89.5751 248.044 90.0155 248.07 90.47C259.58 89.47 263.01 92.14 264.01 93.54C264.146 92.5993 264.216 91.6504 264.22 90.7C264.231 85.932 262.442 81.3355 259.21 77.83H259.2ZM247.4 92.55C247.134 92.8886 246.791 93.1593 246.4 93.34C251.87 103.08 251.17 107.34 250.34 109.01C253.07 108.25 255.596 106.891 257.735 105.031C259.873 103.172 261.569 100.858 262.7 98.26C261.38 98.94 257.25 99.83 247.41 92.55H247.4ZM245.21 71.69C242.259 71.684 239.348 72.369 236.71 73.69C238.34 74.25 241.84 76.76 244.31 87.97C244.598 87.8646 244.903 87.8137 245.21 87.82C245.366 87.8048 245.524 87.8048 245.68 87.82C248.34 75.32 252.27 73.73 253.47 73.54C250.897 72.3036 248.075 71.6709 245.22 71.69H245.21ZM246.33 93.3C246.333 93.3002 246.337 93.3002 246.34 93.3H246.33ZM244.33 93.42C243.893 93.2877 243.495 93.0508 243.17 92.73C234.63 100.73 230.3 100.62 228.71 100.13C230.118 102.596 232.06 104.715 234.395 106.331C236.729 107.948 239.396 109.02 242.2 109.47C241.22 108.16 239.78 104.17 244.33 93.42ZM242.54 89.64C231 84.45 230.15 80.3 230.22 79C228.427 81.2904 227.187 83.9634 226.595 86.8113C226.004 89.6592 226.077 92.6052 226.81 95.42C227.67 93.94 230.81 91.02 242.35 90.97C242.35 90.87 242.35 90.76 242.35 90.66C242.346 90.3109 242.411 89.9643 242.54 89.64ZM259.21 77.83C259.21 79.41 258.01 83.47 247.67 89.19C247.913 89.5751 248.054 90.0155 248.08 90.47C259.59 89.47 263.02 92.14 264.02 93.54C264.156 92.5993 264.226 91.6504 264.23 90.7C264.239 85.9306 262.446 81.3339 259.21 77.83ZM242.54 89.64C231 84.45 230.15 80.3 230.22 79C228.427 81.2904 227.187 83.9634 226.595 86.8113C226.004 89.6592 226.077 92.6052 226.81 95.42C227.67 93.94 230.81 91.02 242.35 90.97C242.35 90.87 242.35 90.76 242.35 90.66C242.346 90.3109 242.411 89.9643 242.54 89.64ZM244.33 93.42C243.893 93.2877 243.495 93.0508 243.17 92.73C234.63 100.73 230.3 100.62 228.71 100.13C230.118 102.596 232.06 104.715 234.395 106.331C236.729 107.948 239.396 109.02 242.2 109.47C241.22 108.16 239.78 104.17 244.33 93.42ZM246.33 93.3C246.333 93.3002 246.337 93.3002 246.34 93.3H246.33ZM245.21 71.69C242.259 71.684 239.348 72.369 236.71 73.69C238.34 74.25 241.84 76.76 244.31 87.97C244.598 87.8646 244.903 87.8137 245.21 87.82C245.366 87.8048 245.524 87.8048 245.68 87.82C248.34 75.32 252.27 73.73 253.47 73.54C250.897 72.3036 248.075 71.6709 245.22 71.69H245.21ZM247.4 92.55C247.134 92.8886 246.791 93.1593 246.4 93.34C251.87 103.08 251.17 107.34 250.34 109.01C253.07 108.25 255.596 106.891 257.735 105.031C259.873 103.172 261.569 100.858 262.7 98.26C261.38 98.94 257.25 99.83 247.41 92.55H247.4ZM259.2 77.83C259.2 79.41 258 83.47 247.66 89.19C247.903 89.5751 248.044 90.0155 248.07 90.47C259.58 89.47 263.01 92.14 264.01 93.54C264.146 92.5993 264.216 91.6504 264.22 90.7C264.231 85.932 262.442 81.3355 259.21 77.83H259.2ZM247.4 92.55C247.134 92.8886 246.791 93.1593 246.4 93.34C251.87 103.08 251.17 107.34 250.34 109.01C253.07 108.25 255.596 106.891 257.735 105.031C259.873 103.172 261.569 100.858 262.7 98.26C261.38 98.94 257.25 99.83 247.41 92.55H247.4ZM245.21 71.69C242.259 71.684 239.348 72.369 236.71 73.69C238.34 74.25 241.84 76.76 244.31 87.97C244.598 87.8646 244.903 87.8137 245.21 87.82C245.366 87.8048 245.524 87.8048 245.68 87.82C248.34 75.32 252.27 73.73 253.47 73.54C250.897 72.3036 248.075 71.6709 245.22 71.69H245.21ZM246.33 93.3C246.333 93.3002 246.337 93.3002 246.34 93.3H246.33ZM244.33 93.42C243.893 93.2877 243.495 93.0508 243.17 92.73C234.63 100.73 230.3 100.62 228.71 100.13C230.118 102.596 232.06 104.715 234.395 106.331C236.729 107.948 239.396 109.02 242.2 109.47C241.22 108.16 239.78 104.17 244.33 93.42ZM242.54 89.64C231 84.45 230.15 80.3 230.22 79C228.427 81.2904 227.187 83.9634 226.595 86.8113C226.004 89.6592 226.077 92.6052 226.81 95.42C227.67 93.94 230.81 91.02 242.35 90.97C242.35 90.87 242.35 90.76 242.35 90.66C242.346 90.3109 242.411 89.9643 242.54 89.64ZM259.21 77.83C259.21 79.41 258.01 83.47 247.67 89.19C247.913 89.5751 248.054 90.0155 248.08 90.47C259.59 89.47 263.02 92.14 264.02 93.54C264.156 92.5993 264.226 91.6504 264.23 90.7C264.239 85.9306 262.446 81.3339 259.21 77.83ZM242.54 89.64C231 84.45 230.15 80.3 230.22 79C228.427 81.2904 227.187 83.9634 226.595 86.8113C226.004 89.6592 226.077 92.6052 226.81 95.42C227.67 93.94 230.81 91.02 242.35 90.97C242.35 90.87 242.35 90.76 242.35 90.66C242.346 90.3109 242.411 89.9643 242.54 89.64ZM244.33 93.42C243.893 93.2877 243.495 93.0508 243.17 92.73C234.63 100.73 230.3 100.62 228.71 100.13C230.118 102.596 232.06 104.715 234.395 106.331C236.729 107.948 239.396 109.02 242.2 109.47C241.22 108.16 239.78 104.17 244.33 93.42ZM246.33 93.3C246.333 93.3002 246.337 93.3002 246.34 93.3H246.33ZM245.21 71.69C242.259 71.684 239.348 72.369 236.71 73.69C238.34 74.25 241.84 76.76 244.31 87.97C244.598 87.8646 244.903 87.8137 245.21 87.82C245.366 87.8048 245.524 87.8048 245.68 87.82C248.34 75.32 252.27 73.73 253.47 73.54C250.897 72.3036 248.075 71.6709 245.22 71.69H245.21ZM247.4 92.55C247.134 92.8886 246.791 93.1593 246.4 93.34C251.87 103.08 251.17 107.34 250.34 109.01C253.07 108.25 255.596 106.891 257.735 105.031C259.873 103.172 261.569 100.858 262.7 98.26C261.38 98.94 257.25 99.83 247.41 92.55H247.4ZM259.2 77.83C259.2 79.41 258 83.47 247.66 89.19C247.903 89.5751 248.044 90.0155 248.07 90.47C259.58 89.47 263.01 92.14 264.01 93.54C264.146 92.5993 264.216 91.6504 264.22 90.7C264.231 85.932 262.442 81.3355 259.21 77.83H259.2ZM247.4 92.55C247.134 92.8886 246.791 93.1593 246.4 93.34C251.87 103.08 251.17 107.34 250.34 109.01C253.07 108.25 255.596 106.891 257.735 105.031C259.873 103.172 261.569 100.858 262.7 98.26C261.38 98.94 257.25 99.83 247.41 92.55H247.4ZM245.21 71.69C242.259 71.684 239.348 72.369 236.71 73.69C238.34 74.25 241.84 76.76 244.31 87.97C244.598 87.8646 244.903 87.8137 245.21 87.82C245.366 87.8048 245.524 87.8048 245.68 87.82C248.34 75.32 252.27 73.73 253.47 73.54C250.897 72.3036 248.075 71.6709 245.22 71.69H245.21ZM246.33 93.3C246.333 93.3002 246.337 93.3002 246.34 93.3H246.33ZM244.33 93.42C243.893 93.2877 243.495 93.0508 243.17 92.73C234.63 100.73 230.3 100.62 228.71 100.13C230.118 102.596 232.06 104.715 234.395 106.331C236.729 107.948 239.396 109.02 242.2 109.47C241.22 108.16 239.78 104.17 244.33 93.42ZM242.54 89.64C231 84.45 230.15 80.3 230.22 79C228.427 81.2904 227.187 83.9634 226.595 86.8113C226.004 89.6592 226.077 92.6052 226.81 95.42C227.67 93.94 230.81 91.02 242.35 90.97C242.35 90.87 242.35 90.76 242.35 90.66C242.346 90.3109 242.411 89.9643 242.54 89.64Z" fill="white"/>
<path d="M242.33 90.7C242.33 90.8 242.33 90.91 242.33 91.01C230.83 91.01 227.65 94.01 226.79 95.46C226.054 92.6377 225.98 89.6833 226.575 86.8278C227.17 83.9724 228.418 81.2932 230.22 79C230.15 80.26 230.98 84.41 242.54 89.6C242.393 89.9477 242.321 90.3226 242.33 90.7Z" fill="white"/>
<path d="M242.2 109.47C239.396 109.02 236.729 107.948 234.395 106.331C232.06 104.715 230.118 102.596 228.71 100.13C230.3 100.62 234.63 100.68 243.17 92.73C243.495 93.0508 243.893 93.2877 244.33 93.42C239.78 104.17 241.22 108.16 242.2 109.47Z" fill="white"/>
<path d="M253.48 73.58C252.28 73.77 248.35 75.36 245.69 87.86C245.534 87.8447 245.376 87.8447 245.22 87.86C244.913 87.8537 244.608 87.9045 244.32 88.01C241.85 76.8 238.32 74.29 236.72 73.73C239.319 72.4314 242.182 71.7462 245.087 71.7271C247.993 71.708 250.864 72.3556 253.48 73.62V73.58Z" fill="white"/>
<path d="M262.66 98.26C261.528 100.856 259.831 103.168 257.693 105.026C255.555 106.884 253.029 108.241 250.3 109C251.13 107.36 251.83 103.07 246.36 93.33C246.751 93.1493 247.094 92.8785 247.36 92.54C257.25 99.83 261.38 98.94 262.66 98.26Z" fill="white"/>
<path d="M264.23 90.7C264.226 91.6504 264.156 92.5994 264.02 93.54C263.02 92.14 259.59 89.54 248.08 90.47C248.054 90.0155 247.913 89.5751 247.67 89.19C258.01 83.47 259.21 79.41 259.21 77.83C262.446 81.3339 264.239 85.9306 264.23 90.7Z" fill="white"/>
<path d="M259.21 77.83C259.21 79.41 258.01 83.47 247.67 89.19C247.913 89.5751 248.054 90.0155 248.08 90.47C259.59 89.47 263.02 92.14 264.02 93.54C264.156 92.5993 264.226 91.6504 264.23 90.7C264.239 85.9306 262.446 81.3339 259.21 77.83ZM247.41 92.55C247.144 92.8885 246.801 93.1592 246.41 93.34C251.88 103.08 251.18 107.34 250.35 109.01C253.08 108.25 255.606 106.891 257.745 105.031C259.883 103.172 261.579 100.858 262.71 98.26C261.38 98.94 257.25 99.83 247.41 92.55ZM245.22 71.69C242.269 71.684 239.358 72.369 236.72 73.69C238.35 74.25 241.85 76.76 244.32 87.97C244.608 87.8645 244.913 87.8137 245.22 87.82C245.376 87.8048 245.534 87.8048 245.69 87.82C248.35 75.32 252.28 73.73 253.48 73.54C250.904 72.3021 248.078 71.6693 245.22 71.69ZM244.34 93.42C243.903 93.2877 243.505 93.0508 243.18 92.73C234.64 100.73 230.31 100.62 228.72 100.13C230.128 102.596 232.07 104.715 234.405 106.331C236.739 107.948 239.406 109.02 242.21 109.47C241.22 108.16 239.78 104.17 244.33 93.42H244.34ZM242.55 89.64C231 84.45 230.15 80.3 230.22 79C228.427 81.2903 227.187 83.9634 226.595 86.8113C226.004 89.6592 226.077 92.6051 226.81 95.42C227.67 93.94 230.81 91.02 242.35 90.97C242.35 90.87 242.35 90.76 242.35 90.66C242.346 90.3109 242.411 89.9643 242.54 89.64H242.55ZM246.35 93.3C246.347 93.2998 246.343 93.2998 246.34 93.3H246.35ZM246.35 93.3C246.347 93.2998 246.343 93.2998 246.34 93.3H246.35ZM246.35 93.3C246.347 93.2998 246.343 93.2998 246.34 93.3H246.35ZM246.35 93.3C246.347 93.2998 246.343 93.2998 246.34 93.3H246.35ZM246.35 93.3C246.347 93.2998 246.343 93.2998 246.34 93.3H246.35ZM246.35 93.3C246.347 93.2998 246.343 93.2998 246.34 93.3H246.35ZM246.35 93.3C246.347 93.2998 246.343 93.2998 246.34 93.3H246.35ZM246.35 93.3C246.347 93.2998 246.343 93.2998 246.34 93.3H246.35ZM246.35 93.3C246.347 93.2998 246.343 93.2998 246.34 93.3H246.35ZM246.35 93.3C246.347 93.2998 246.343 93.2998 246.34 93.3H246.35Z" fill="white"/>
<path d="M248.1 90.7C248.097 91.36 247.868 91.999 247.45 92.51C247.184 92.8485 246.841 93.1192 246.45 93.3C246.092 93.449 245.708 93.5271 245.32 93.53C245.02 93.5315 244.722 93.4808 244.44 93.38C244.003 93.2477 243.605 93.0108 243.28 92.69C242.85 92.2535 242.576 91.6877 242.5 91.08C242.495 91.0569 242.495 91.0331 242.5 91.01C242.5 90.91 242.5 90.8 242.5 90.7C242.497 90.336 242.568 89.9753 242.71 89.64C242.706 89.6101 242.706 89.5799 242.71 89.55C242.852 89.2016 243.063 88.885 243.329 88.6188C243.595 88.3527 243.912 88.1423 244.26 88C244.269 87.9956 244.28 87.9932 244.29 87.9932C244.3 87.9932 244.311 87.9956 244.32 88C244.608 87.8945 244.913 87.8437 245.22 87.85C245.376 87.8347 245.534 87.8347 245.69 87.85H245.78C246.163 87.9259 246.527 88.0795 246.849 88.3014C247.17 88.5232 247.443 88.8086 247.65 89.14C247.893 89.5251 248.034 89.9655 248.06 90.42C248.087 90.511 248.1 90.6052 248.1 90.7Z" fill="white"/>
</g>
<defs>
<clipPath id="clip0_110_242">
<rect width="309.28" height="115.63" fill="white"/>
</clipPath>
</defs>
</svg>
